<svg width="737" height="579" viewBox="0 0 737 579" fill="none" xmlns="http://www.w3.org/2000/svg">
<path d="M442.427 505.556C458.34 500.582 472.618 495.501 489.794 485.856C507.509 475.908 586.203 428.566 596.436 346.631C599.117 324.175 596.892 301.405 589.915 279.892C586.751 270.62 580.19 251.996 563.631 233.578C543.36 211.019 520.23 202.275 506.667 197.33C486.214 189.977 464.506 186.752 442.799 187.842C430.499 188.244 408.789 189.145 384.111 199.925C368.012 206.955 358.004 214.975 343.256 226.959C319.891 245.965 316.816 253.876 275.941 293.12C264.719 303.891 255.494 312.38 241.412 320.742C231.649 326.539 223.756 329.78 209.194 335.694C173.402 350.234 163.211 353.178 151.499 361.364C128.721 377.295 130.196 394.668 129.217 398.408C126.671 407.974 126.081 417.955 127.484 427.753C130.471 447.405 141.057 460.251 147.627 468.026C156.647 478.6 167.577 487.383 179.845 493.914C188.363 498.408 197.185 502.298 206.247 505.557L442.427 505.556Z" fill="#90BAE7"/>
<path d="M492.949 491.667L492.469 490.813C515.873 477.666 593.037 428.378 603.3 346.157C606.068 322.84 603.758 299.201 596.529 276.861C593.614 268.311 586.786 248.289 569.259 228.789C547.793 204.907 523.287 195.97 510.121 191.168C488.878 183.523 466.328 180.172 443.779 181.31C431.611 181.705 408.965 182.442 382.826 193.854L382.434 192.957C408.745 181.469 432.385 180.7 443.746 180.331C466.42 179.186 489.096 182.557 510.456 190.249C523.702 195.079 548.358 204.07 569.988 228.135C587.649 247.784 594.522 267.938 597.457 276.545C604.731 299.026 607.056 322.815 604.272 346.278C593.952 428.955 516.455 478.463 492.949 491.667Z" fill="#D5EFC8"/>
<path d="M206.477 166.335L214.134 206.655L229.761 212.47L245.385 206.655L253.042 166.335H206.477Z" fill="#FFBA55"/>
<path d="M270.905 149.929C269.835 148.907 268.489 148.221 267.033 147.957C265.578 147.692 264.076 147.86 262.715 148.44C261.97 148.8 261.307 149.309 260.767 149.935C260.226 150.561 259.819 151.291 259.572 152.08C259.51 152.3 258.791 155.035 260.482 156.795C261.277 157.623 262.765 158.399 263.791 157.87C264.043 157.745 264.259 157.558 264.418 157.327C264.577 157.095 264.674 156.826 264.701 156.546C264.696 156.082 264.366 155.987 264.204 155.388C264.023 154.714 264.158 153.776 264.618 153.569C265.108 153.349 265.964 153.957 266.355 154.644C267.084 155.925 266.44 157.907 265.335 159.028C263.545 160.844 260.602 160.34 259.379 160.131C256.679 159.577 254.259 158.094 252.54 155.94C251.253 154.578 250.341 152.906 249.893 151.087C249.583 149.327 249.658 147.521 250.113 145.793C250.812 142.442 251.679 141.945 253.202 137.632C254.356 134.362 254.929 132.679 254.746 130.353C254.692 128.349 253.996 126.416 252.76 124.838C251.246 123.082 249.113 121.976 246.804 121.75C245.369 121.663 243.932 121.894 242.597 122.428C241.262 122.962 240.062 123.785 239.083 124.838L236.325 121.712C236.325 121.712 239.634 120.482 234.836 112.21L235.746 111.507C235.746 101.412 231.735 91.7302 224.596 84.5919C217.457 77.4536 207.774 73.4434 197.678 73.4434C187.581 73.4434 177.899 77.4536 170.759 84.5919C163.62 91.7302 159.61 101.412 159.61 111.507L155.753 214.834H154.426C154.034 214.834 153.646 214.91 153.284 215.059C152.922 215.209 152.593 215.428 152.316 215.705C152.039 215.981 151.819 216.31 151.669 216.671C151.519 217.033 151.442 217.421 151.442 217.812C151.442 218.204 151.519 218.591 151.669 218.953C151.819 219.315 152.039 219.643 152.316 219.92C152.593 220.196 152.922 220.416 153.284 220.565C153.646 220.714 154.034 220.791 154.426 220.79H155.531L155.067 233.216H154.426C154.034 233.215 153.646 233.292 153.284 233.441C152.922 233.59 152.593 233.81 152.316 234.086C152.039 234.363 151.819 234.691 151.669 235.053C151.519 235.415 151.442 235.802 151.442 236.194C151.442 236.585 151.519 236.973 151.669 237.335C151.819 237.696 152.039 238.025 152.316 238.301C152.593 238.578 152.922 238.797 153.284 238.947C153.646 239.096 154.034 239.172 154.426 239.172H154.845L145.183 498.057H144.608C143.614 498.057 142.66 498.452 141.957 499.155C141.253 499.859 140.858 500.812 140.858 501.807C140.858 502.801 141.253 503.755 141.957 504.458C142.66 505.162 143.614 505.557 144.608 505.557H185.972C186.967 505.557 187.921 505.162 188.624 504.458C189.327 503.755 189.722 502.801 189.722 501.807C189.722 500.812 189.327 499.859 188.624 499.155C187.921 498.452 186.967 498.057 185.972 498.057H185.067L175.404 239.172H175.824C176.216 239.172 176.604 239.096 176.966 238.947C177.328 238.797 177.657 238.578 177.934 238.301C178.211 238.025 178.431 237.696 178.581 237.335C178.731 236.973 178.808 236.585 178.808 236.194C178.808 235.802 178.731 235.415 178.581 235.053C178.431 234.691 178.211 234.363 177.934 234.086C177.657 233.81 177.328 233.59 176.966 233.441C176.604 233.292 176.216 233.215 175.824 233.216H175.182L174.719 220.79H175.824C176.216 220.791 176.604 220.714 176.966 220.565C177.328 220.416 177.657 220.196 177.934 219.92C178.211 219.643 178.431 219.315 178.581 218.953C178.731 218.591 178.808 218.204 178.808 217.812C178.808 217.421 178.731 217.033 178.581 216.671C178.431 216.31 178.211 215.981 177.934 215.705C177.657 215.428 177.328 215.209 176.966 215.059C176.604 214.91 176.216 214.834 175.824 214.834H174.496L170.64 111.507C170.64 104.337 173.488 97.4605 178.559 92.3906C183.63 87.3206 190.507 84.4723 197.678 84.4723C204.849 84.4723 211.726 87.3206 216.797 92.3906C221.867 97.4605 224.716 104.337 224.716 111.507L225.626 112.21C220.828 120.482 224.137 121.712 224.137 121.712L221.379 124.838C220.4 123.785 219.2 122.962 217.865 122.428C216.53 121.894 215.093 121.663 213.658 121.75C211.35 121.976 209.217 123.082 207.702 124.838C206.466 126.416 205.77 128.349 205.716 130.353C205.533 132.679 206.106 134.362 207.261 137.632C208.783 141.945 209.65 142.442 210.349 145.793C210.804 147.521 210.88 149.327 210.57 151.087C210.121 152.906 209.209 154.578 207.922 155.94C206.203 158.094 203.783 159.577 201.083 160.131C199.86 160.34 196.917 160.844 195.127 159.028C194.022 157.907 193.378 155.925 194.107 154.644C194.498 153.957 195.354 153.349 195.844 153.569C196.304 153.776 196.439 154.714 196.258 155.388C196.097 155.987 195.766 156.082 195.762 156.546C195.788 156.826 195.885 157.095 196.044 157.327C196.204 157.558 196.42 157.745 196.672 157.87C197.697 158.399 199.185 157.623 199.98 156.795C201.671 155.035 200.952 152.3 200.89 152.08C200.643 151.291 200.236 150.561 199.696 149.935C199.155 149.309 198.492 148.8 197.747 148.44C196.386 147.86 194.884 147.692 193.429 147.957C191.973 148.221 190.627 148.907 189.557 149.929C188.08 151.343 187.193 153.264 187.075 155.306C186.909 159.964 191.328 163.127 192.535 163.991C196.789 167.036 201.487 167.166 204.944 167.217C214.198 167.354 222.409 167.408 230.231 167.387C238.053 167.408 246.264 167.354 255.518 167.217C258.975 167.166 263.673 167.036 267.927 163.991C269.134 163.127 273.553 159.964 273.387 155.306C273.269 153.264 272.382 151.343 270.905 149.929Z" fill="#616161"/>
<path d="M206.477 166.335L214.134 206.655L229.761 212.47L245.385 206.655L253.042 166.335H206.477ZM208.696 168.173H228.841V210.166L215.747 205.294L208.696 168.173ZM243.773 205.294L230.68 210.166V168.173H250.823L243.773 205.294Z" fill="#6B3832"/>
<path d="M229.744 217.811C231.891 217.811 233.632 216.071 233.632 213.924C233.632 211.777 231.891 210.036 229.744 210.036C227.597 210.036 225.856 211.777 225.856 213.924C225.856 216.071 227.597 217.811 229.744 217.811Z" fill="#6B3832"/>
<path d="M565.357 505.075L566.124 504.614C565.908 504.255 544.54 468.649 541.214 459.779L540.376 460.093C543.732 469.04 564.476 503.607 565.357 505.075Z" fill="#8B9D36"/>
<path d="M548.037 441.109C547.132 443.346 546.441 445.664 545.971 448.031C545.491 450.349 545.139 452.692 544.916 455.049C544.687 457.405 544.589 459.772 544.625 462.139C544.638 464.553 544.883 466.96 545.354 469.327C546.263 467.091 546.956 464.773 547.424 462.406C547.905 460.088 548.256 457.744 548.475 455.387C548.7 453.03 548.796 450.663 548.761 448.296C548.746 445.883 548.504 443.476 548.037 441.109ZM555.923 451.89C554.822 453.974 553.924 456.16 553.243 458.417C552.556 460.623 551.994 462.865 551.559 465.134C551.119 467.402 550.808 469.694 550.63 471.997C550.426 474.346 550.451 476.709 550.706 479.053C551.812 476.97 552.711 474.785 553.391 472.527C554.079 470.322 554.639 468.078 555.071 465.809C555.507 463.54 555.816 461.248 555.995 458.945C556.198 456.597 556.174 454.234 555.923 451.89ZM560.268 464.442C559.299 466.379 558.534 468.412 557.987 470.508C557.435 472.55 557.008 474.624 556.71 476.718C556.407 478.811 556.234 480.921 556.194 483.036C556.131 485.202 556.298 487.368 556.692 489.499C557.666 487.564 558.432 485.53 558.978 483.433C559.531 481.392 559.956 479.318 560.25 477.223C560.549 475.129 560.72 473.019 560.761 470.904C560.823 468.739 560.658 466.573 560.268 464.442ZM565.74 476.97C564.767 478.593 563.99 480.326 563.427 482.133C562.864 483.878 562.425 485.661 562.114 487.468C561.797 489.274 561.611 491.101 561.557 492.934C561.481 494.825 561.633 496.719 562.01 498.574C562.988 496.953 563.766 495.22 564.328 493.412C564.892 491.667 565.33 489.884 565.637 488.076C565.95 486.269 566.134 484.443 566.189 482.61C566.264 480.719 566.114 478.826 565.74 476.97ZM570.569 484.801C569.575 486.209 568.755 487.73 568.126 489.334C567.51 490.865 566.997 492.436 566.591 494.036C566.188 495.624 565.879 497.234 565.664 498.858C565.563 499.677 565.471 500.491 565.41 501.32C565.378 502.166 565.288 503.008 565.14 503.841C565.347 503.731 565.545 503.605 565.734 503.467L566.216 502.984C566.523 502.654 566.805 502.302 567.059 501.929C567.548 501.212 567.982 500.458 568.355 499.674C569.08 498.15 569.65 496.556 570.056 494.918C570.47 493.294 570.738 491.637 570.857 489.965C571.001 488.239 570.904 486.501 570.569 484.801ZM543.348 465.472C541.725 463.692 539.899 462.109 537.908 460.755C535.989 459.422 533.98 458.224 531.895 457.17C529.813 456.11 527.659 455.198 525.449 454.442C523.178 453.637 520.82 453.105 518.424 452.856C520.043 454.639 521.868 456.224 523.861 457.578C525.779 458.911 527.789 460.107 529.877 461.157C531.961 462.213 534.115 463.123 536.326 463.88C538.596 464.683 540.953 465.217 543.348 465.472ZM548.691 475.451C546.616 473.754 544.367 472.282 541.982 471.059C539.665 469.844 537.275 468.774 534.826 467.855C532.379 466.929 529.877 466.159 527.333 465.549C524.733 464.897 522.07 464.526 519.39 464.442C521.462 466.143 523.71 467.617 526.097 468.839C528.413 470.055 530.803 471.124 533.254 472.038C535.703 472.959 538.206 473.727 540.75 474.338C543.35 474.988 546.012 475.361 548.691 475.451ZM554.981 486.543C553.133 484.903 551.104 483.481 548.933 482.303C546.834 481.137 544.66 480.116 542.423 479.244C540.19 478.366 537.898 477.643 535.565 477.08C533.17 476.475 530.712 476.149 528.242 476.109C530.086 477.753 532.115 479.177 534.287 480.354C536.385 481.52 538.561 482.54 540.799 483.407C543.034 484.281 545.326 485.002 547.659 485.566C550.054 486.17 552.511 486.497 554.981 486.543ZM559.952 495.08C558.342 493.686 556.556 492.51 554.64 491.582C552.806 490.67 550.903 489.905 548.949 489.294C546.996 488.677 544.997 488.218 542.971 487.922C540.867 487.59 538.728 487.54 536.61 487.772C538.217 489.171 540.003 490.349 541.92 491.276C543.754 492.189 545.657 492.952 547.613 493.558C549.567 494.171 551.567 494.628 553.593 494.924C555.696 495.255 557.834 495.307 559.952 495.08Z" fill="#8B9D36"/>
<path d="M563.875 502.741C562.106 501.043 560.147 499.554 558.037 498.305C555.999 497.072 553.88 495.978 551.694 495.033C549.511 494.082 547.264 493.283 544.97 492.642C542.614 491.957 540.187 491.549 537.737 491.426C539.503 493.129 541.462 494.619 543.573 495.868C545.61 497.102 547.73 498.194 549.918 499.134C552.104 500.081 554.351 500.878 556.645 501.519C559 502.203 561.426 502.613 563.875 502.741ZM541.611 461.224C541.938 458.84 541.879 456.419 541.437 454.054C541.048 451.824 540.436 449.639 539.61 447.531C538.792 445.421 537.76 443.4 536.531 441.499C535.25 439.461 533.646 437.644 531.782 436.12C531.449 438.504 531.505 440.927 531.948 443.293C532.336 445.523 532.951 447.707 533.783 449.812C534.608 451.921 535.642 453.94 536.871 455.842C538.152 457.878 539.753 459.695 541.611 461.224Z" fill="#8B9D36"/>
<path d="M567.662 505.557L568.555 505.541C568.516 503.099 567.455 445.505 555.933 427.264L555.177 427.742C566.566 445.772 567.652 504.961 567.662 505.557Z" fill="#50661A"/>
<path d="M559.257 435.491C558.902 432.819 558.813 430.119 558.989 427.429C559.137 424.808 559.428 422.198 559.86 419.608C560.278 417.029 560.846 414.476 561.513 411.944C562.181 409.395 563.023 406.943 563.923 404.331C564.178 404.979 564.371 405.65 564.5 406.335C564.644 407.007 564.75 407.687 564.815 408.372C564.955 409.715 565.016 411.065 564.997 412.415C564.957 415.071 564.714 417.72 564.269 420.339C563.836 422.95 563.223 425.528 562.436 428.054C561.657 430.644 560.59 433.138 559.257 435.491ZM545.094 399.02C547.074 400.93 548.773 403.112 550.138 405.5C551.467 407.765 552.598 410.142 553.518 412.602C554.446 415.059 555.156 417.594 555.64 420.175C556.18 422.874 556.33 425.636 556.082 428.377C554.096 426.472 552.395 424.291 551.031 421.9C549.7 419.636 548.572 417.258 547.658 414.795C546.736 412.335 546.029 409.8 545.544 407.219C545.005 404.521 544.854 401.761 545.094 399.02ZM535.598 413.699C537.948 415.586 540.167 417.631 542.24 419.818C544.293 421.946 546.252 424.121 548.169 426.308L553.863 432.842C554.818 433.912 555.783 434.966 556.803 435.965C557.811 437.023 558.985 437.91 560.278 438.59C559.489 438.728 558.681 438.707 557.9 438.529C557.112 438.372 556.344 438.131 555.609 437.809C554.169 437.176 552.801 436.392 551.528 435.469C549.057 433.66 546.802 431.574 544.806 429.251C542.821 426.976 541.034 424.535 539.465 421.955C537.849 419.368 536.551 416.596 535.598 413.699ZM535.598 428.377C538.495 429.823 541.258 431.522 543.855 433.455C546.426 435.334 548.898 437.343 551.264 439.475C553.634 441.601 555.892 443.848 558.03 446.209C560.224 448.589 562.202 451.161 563.939 453.894C561.039 452.452 558.274 450.754 555.677 448.821C553.106 446.942 550.635 444.931 548.273 442.796C545.906 440.666 543.649 438.417 541.511 436.058C539.318 433.677 537.339 431.106 535.598 428.377ZM536.564 439.894C539.482 441.252 542.274 442.866 544.906 444.717C547.51 446.517 550.019 448.449 552.425 450.505C554.835 452.556 557.137 454.732 559.32 457.023C561.561 459.334 563.59 461.841 565.382 464.514C562.462 463.161 559.668 461.549 557.036 459.695C554.432 457.897 551.924 455.963 549.522 453.903C547.114 451.848 544.814 449.671 542.631 447.38C540.391 445.069 538.36 442.564 536.564 439.894ZM537.208 452.204C540.111 453.296 542.909 454.653 545.564 456.257C548.184 457.811 550.721 459.503 553.161 461.327C555.606 463.144 557.95 465.093 560.184 467.165C562.478 469.254 564.573 471.552 566.44 474.03C563.534 472.943 560.736 471.588 558.081 469.982C555.459 468.429 552.924 466.735 550.487 464.907C548.045 463.086 545.702 461.135 543.468 459.064C541.175 456.974 539.079 454.678 537.208 452.204ZM536.564 461.135C539.602 462.357 542.527 463.842 545.307 465.574C548.055 467.255 550.717 469.073 553.283 471.022C555.853 472.966 558.321 475.039 560.678 477.236C563.094 479.447 565.31 481.867 567.299 484.469C564.259 483.251 561.332 481.768 558.553 480.035C555.804 478.355 553.143 476.535 550.58 474.581C548.013 472.634 545.546 470.559 543.189 468.363C540.774 466.151 538.557 463.733 536.564 461.135ZM534.311 469.503C537.474 470.974 540.528 472.669 543.45 474.574C546.351 476.432 549.158 478.395 551.895 480.444C554.64 482.481 557.309 484.605 559.93 486.8C562.579 488.976 565.081 491.242 567.822 493.486C566.062 493.197 564.344 492.695 562.704 491.993C561.081 491.314 559.495 490.551 557.953 489.706C554.919 488.008 552.001 486.11 549.22 484.024C546.45 481.947 543.801 479.712 541.287 477.33C538.726 474.941 536.391 472.321 534.311 469.503ZM531.575 478.193C534.993 479.521 538.31 481.097 541.499 482.908C544.668 484.673 547.743 486.569 550.748 488.564C553.754 490.558 556.687 492.656 559.547 494.856C560.977 495.959 562.393 497.082 563.795 498.224C565.152 499.427 566.593 500.53 568.108 501.526C567.158 501.527 566.215 501.365 565.32 501.047C564.421 500.781 563.549 500.458 562.686 500.121C560.966 499.438 559.304 498.657 557.673 497.829C554.436 496.162 551.298 494.311 548.273 492.284C545.249 490.273 542.329 488.109 539.524 485.801C536.668 483.489 534.01 480.944 531.575 478.193ZM562.031 445.714C562.176 442.811 562.606 439.929 563.313 437.109C563.982 434.341 564.808 431.613 565.787 428.939C566.76 426.263 567.887 423.645 569.163 421.099C570.44 418.487 571.974 416.008 573.741 413.699C573.601 416.603 573.173 419.486 572.464 422.306C571.796 425.074 570.968 427.802 569.984 430.474C569.007 433.149 567.878 435.766 566.603 438.312C565.325 440.923 563.793 443.402 562.031 445.714ZM563.939 455.763C564.487 452.875 565.314 450.047 566.409 447.318C567.457 444.635 568.657 442.013 570.001 439.465C571.339 436.913 572.822 434.441 574.443 432.059C576.074 429.613 577.941 427.332 580.017 425.25C579.474 428.14 578.649 430.969 577.553 433.697C576.505 436.381 575.303 439.002 573.955 441.548C572.613 444.097 571.128 446.569 569.508 448.951C567.876 451.396 566.011 453.677 563.939 455.763ZM565.382 465.48C566.323 462.548 567.533 459.71 568.998 457.002C570.413 454.331 571.971 451.738 573.665 449.235C575.352 446.727 577.176 444.313 579.127 442.004C581.093 439.634 583.277 437.453 585.65 435.491C584.715 438.425 583.506 441.265 582.04 443.972C580.625 446.644 579.066 449.236 577.368 451.737C575.676 454.242 573.851 456.654 571.901 458.963C569.934 461.332 567.752 463.514 565.382 465.48ZM566.44 476.201C567.915 473.032 569.646 469.989 571.617 467.102C573.541 464.231 575.594 461.465 577.776 458.805C579.95 456.14 582.251 453.577 584.677 451.117C587.114 448.61 589.754 446.309 592.571 444.239C591.102 447.411 589.372 450.455 587.399 453.341C585.475 456.212 583.421 458.976 581.236 461.634C579.056 464.296 576.754 466.857 574.329 469.318C571.892 471.824 569.253 474.125 566.44 476.201ZM567.299 487.317C569.107 484.305 571.157 481.445 573.429 478.765C575.653 476.095 577.994 473.544 580.453 471.112C582.905 468.673 585.471 466.349 588.153 464.14C590.849 461.886 593.726 459.858 596.755 458.078C594.952 461.094 592.903 463.956 590.63 466.635C588.406 469.304 586.063 471.853 583.602 474.283C581.145 476.718 578.577 479.04 575.897 481.25C573.201 483.502 570.325 485.531 567.299 487.317ZM567.822 494.446C569.827 491.847 572.056 489.427 574.482 487.215C576.851 485.019 579.329 482.944 581.906 480.997C584.479 479.043 587.151 477.223 589.91 475.544C592.7 473.811 595.637 472.329 598.687 471.112C596.685 473.715 594.457 476.136 592.03 478.347C589.662 480.544 587.182 482.618 584.602 484.561C582.026 486.51 579.353 488.329 576.594 490.009C573.804 491.74 570.869 493.224 567.822 494.446ZM568.108 500.4C570.514 498.028 573.117 495.864 575.889 493.931C578.609 491.997 581.413 490.208 584.299 488.564C587.181 486.911 590.144 485.4 593.187 484.029C596.257 482.618 599.444 481.473 602.71 480.606C600.307 482.983 597.705 485.148 594.932 487.08C592.211 489.014 589.407 490.801 586.519 492.442C583.634 494.09 580.67 495.599 577.628 496.971C574.557 498.381 571.373 499.528 568.108 500.4ZM567.886 504.262C570.773 502.27 573.817 500.517 576.989 499.019C580.112 497.511 583.296 496.168 586.533 494.966C589.769 493.762 593.061 492.711 596.41 491.812C599.792 490.878 603.245 490.225 606.734 489.859C603.85 491.856 600.806 493.612 597.633 495.108C594.509 496.615 591.327 497.964 588.086 499.155C584.848 500.353 581.558 501.41 578.207 502.303C574.825 503.235 571.374 503.89 567.886 504.262Z" fill="#50661A"/>
<path d="M569.45 503.954C570.331 502.486 591.075 467.921 594.431 458.972L593.593 458.659C590.267 467.529 568.899 503.135 568.683 503.493L569.45 503.954Z" fill="#5E7C24"/>
<path d="M586.815 440.13C587.72 442.367 588.411 444.684 588.881 447.052C589.361 449.37 589.713 451.713 589.936 454.07C590.166 456.426 590.263 458.793 590.227 461.16C590.214 463.574 589.97 465.981 589.498 468.348C588.589 466.112 587.896 463.794 587.428 461.426C586.947 459.108 586.596 456.765 586.377 454.408C586.152 452.051 586.057 449.684 586.091 447.317C586.106 444.904 586.348 442.497 586.815 440.13ZM578.929 450.911C580.03 452.995 580.928 455.181 581.609 457.438C582.296 459.643 582.858 461.886 583.293 464.155C583.734 466.423 584.044 468.715 584.223 471.018C584.427 473.367 584.401 475.73 584.146 478.074C583.04 475.991 582.141 473.806 581.461 471.548C580.773 469.342 580.213 467.099 579.782 464.829C579.345 462.561 579.036 460.269 578.857 457.966C578.654 455.617 578.678 453.255 578.929 450.911ZM574.584 463.463C575.554 465.4 576.318 467.433 576.865 469.529C577.418 471.571 577.844 473.645 578.142 475.739C578.446 477.832 578.618 479.942 578.658 482.057C578.721 484.223 578.554 486.389 578.161 488.52C577.187 486.584 576.42 484.551 575.874 482.454C575.321 480.413 574.897 478.339 574.603 476.244C574.303 474.15 574.132 472.04 574.091 469.925C574.029 467.76 574.195 465.594 574.584 463.463ZM569.112 475.991C570.085 477.614 570.862 479.347 571.425 481.154C571.989 482.899 572.427 484.682 572.738 486.489C573.055 488.295 573.241 490.122 573.295 491.955C573.372 493.846 573.22 495.74 572.842 497.595C571.865 495.974 571.086 494.241 570.524 492.433C569.96 490.688 569.523 488.905 569.215 487.097C568.902 485.29 568.718 483.464 568.663 481.631C568.588 479.74 568.739 477.847 569.112 475.991ZM564.284 483.822C565.277 485.229 566.097 486.751 566.726 488.355C567.342 489.886 567.855 491.457 568.261 493.057C568.664 494.645 568.973 496.255 569.189 497.879C569.289 498.698 569.381 499.512 569.442 500.341C569.474 501.187 569.564 502.029 569.712 502.862C569.506 502.752 569.307 502.626 569.118 502.488L568.636 502.005C568.329 501.675 568.047 501.323 567.793 500.95C567.304 500.233 566.871 499.479 566.497 498.695C565.772 497.171 565.202 495.577 564.796 493.939C564.382 492.315 564.115 490.657 563.996 488.986C563.851 487.26 563.948 485.522 564.284 483.822ZM591.505 464.492C593.127 462.713 594.953 461.13 596.944 459.776C598.863 458.443 600.872 457.245 602.957 456.191C605.039 455.131 607.193 454.219 609.403 453.463C611.674 452.658 614.032 452.126 616.428 451.877C614.809 453.66 612.984 455.245 610.991 456.598C609.073 457.932 607.063 459.128 604.976 460.178C602.892 461.234 600.737 462.144 598.527 462.901C596.256 463.704 593.899 464.238 591.505 464.492ZM586.161 474.471C588.236 472.775 590.485 471.303 592.871 470.08C595.187 468.865 597.577 467.795 600.026 466.876C602.473 465.95 604.975 465.18 607.519 464.57C610.12 463.918 612.783 463.547 615.462 463.463C613.39 465.164 611.142 466.638 608.756 467.86C606.439 469.076 604.049 470.144 601.598 471.059C599.15 471.98 596.646 472.748 594.103 473.359C591.502 474.009 588.84 474.382 586.161 474.471ZM579.872 485.563C581.719 483.924 583.748 482.501 585.92 481.324C588.018 480.158 590.193 479.137 592.429 478.265C594.663 477.387 596.954 476.664 599.287 476.101C601.683 475.495 604.14 475.17 606.611 475.13C604.766 476.774 602.737 478.198 600.565 479.375C598.467 480.541 596.291 481.561 594.053 482.428C591.818 483.301 589.526 484.023 587.193 484.587C584.798 485.191 582.341 485.518 579.872 485.563ZM574.901 494.101C576.51 492.707 578.296 491.531 580.213 490.603C582.046 489.691 583.949 488.926 585.903 488.315C587.856 487.697 589.855 487.239 591.881 486.943C593.986 486.611 596.124 486.561 598.242 486.793C596.635 488.192 594.85 489.37 592.932 490.297C591.099 491.21 589.195 491.973 587.239 492.579C585.285 493.192 583.286 493.649 581.26 493.945C579.156 494.276 577.018 494.328 574.901 494.101Z" fill="#5E7C24"/>
<path d="M570.977 501.762C572.746 500.064 574.705 498.575 576.816 497.326C578.853 496.092 580.972 494.999 583.158 494.054C585.341 493.102 587.588 492.303 589.882 491.663C592.238 490.978 594.665 490.57 597.115 490.447C595.349 492.149 593.39 493.64 591.279 494.889C589.242 496.123 587.122 497.214 584.934 498.155C582.749 499.102 580.501 499.899 578.207 500.54C575.852 501.224 573.426 501.634 570.977 501.762ZM593.241 460.245C592.914 457.861 592.973 455.44 593.415 453.075C593.804 450.845 594.416 448.66 595.242 446.552C596.06 444.442 597.092 442.421 598.321 440.52C599.603 438.482 601.206 436.665 603.07 435.141C603.404 437.525 603.348 439.948 602.904 442.314C602.516 444.544 601.901 446.728 601.069 448.833C600.245 450.941 599.21 452.961 597.982 454.863C596.7 456.899 595.099 458.716 593.241 460.245Z" fill="#5E7C24"/>
<path d="M171.643 505.075L170.876 504.614C171.092 504.255 192.46 468.649 195.786 459.779L196.624 460.093C193.268 469.04 172.524 503.607 171.643 505.075Z" fill="#8B9D36"/>
<path d="M188.963 441.109C189.867 443.346 190.559 445.664 191.028 448.031C191.508 450.349 191.861 452.692 192.084 455.049C192.313 457.405 192.41 459.772 192.375 462.139C192.361 464.553 192.117 466.96 191.646 469.327C190.737 467.091 190.044 464.773 189.576 462.406C189.095 460.088 188.744 457.744 188.525 455.387C188.3 453.03 188.204 450.663 188.239 448.296C188.254 445.883 188.496 443.476 188.963 441.109ZM181.077 451.89C182.178 453.974 183.076 456.16 183.757 458.417C184.444 460.623 185.006 462.865 185.441 465.134C185.881 467.402 186.191 469.694 186.37 471.997C186.574 474.346 186.548 476.709 186.293 479.053C185.188 476.97 184.289 474.785 183.608 472.527C182.921 470.322 182.36 468.078 181.929 465.809C181.493 463.54 181.184 461.248 181.005 458.945C180.802 456.597 180.826 454.234 181.077 451.89ZM176.731 464.442C177.701 466.379 178.466 468.412 179.013 470.508C179.565 472.55 179.992 474.624 180.29 476.718C180.593 478.811 180.766 480.921 180.806 483.036C180.869 485.202 180.702 487.368 180.308 489.499C179.334 487.564 178.568 485.53 178.022 483.433C177.469 481.392 177.044 479.318 176.75 477.223C176.45 475.129 176.28 473.019 176.239 470.904C176.177 468.739 176.342 466.573 176.731 464.442ZM171.259 476.97C172.233 478.593 173.01 480.326 173.573 482.133C174.136 483.878 174.575 485.661 174.886 487.468C175.203 489.274 175.389 491.101 175.443 492.934C175.519 494.825 175.367 496.719 174.99 498.574C174.012 496.953 173.234 495.22 172.672 493.412C172.108 491.667 171.67 489.884 171.363 488.076C171.05 486.269 170.866 484.443 170.811 482.61C170.736 480.719 170.886 478.826 171.259 476.97ZM166.431 484.801C167.425 486.209 168.245 487.73 168.874 489.334C169.49 490.865 170.003 492.436 170.409 494.036C170.811 495.624 171.121 497.234 171.336 498.858C171.437 499.677 171.529 500.491 171.59 501.32C171.622 502.166 171.712 503.008 171.86 503.841C171.653 503.731 171.455 503.605 171.266 503.467L170.784 502.984C170.477 502.654 170.195 502.302 169.941 501.929C169.452 501.212 169.018 500.458 168.645 499.674C167.919 498.15 167.35 496.556 166.944 494.918C166.53 493.294 166.262 491.637 166.143 489.965C165.999 488.239 166.096 486.501 166.431 484.801ZM193.652 465.472C195.275 463.692 197.101 462.109 199.092 460.755C201.011 459.422 203.02 458.224 205.105 457.17C207.186 456.11 209.341 455.198 211.551 454.442C213.822 453.637 216.18 453.105 218.576 452.856C216.957 454.639 215.132 456.224 213.139 457.578C211.221 458.911 209.21 460.107 207.123 461.157C205.039 462.213 202.884 463.123 200.674 463.88C198.404 464.683 196.047 465.217 193.652 465.472ZM188.309 475.451C190.384 473.754 192.633 472.282 195.018 471.059C197.335 469.844 199.725 468.774 202.174 467.855C204.62 466.929 207.123 466.159 209.667 465.549C212.267 464.897 214.93 464.526 217.61 464.442C215.538 466.143 213.289 467.617 210.903 468.839C208.587 470.055 206.196 471.124 203.745 472.038C201.297 472.959 198.794 473.727 196.25 474.338C193.65 474.988 190.988 475.361 188.309 475.451ZM182.019 486.543C183.867 484.903 185.896 483.481 188.067 482.303C190.165 481.137 192.34 480.116 194.577 479.244C196.81 478.366 199.102 477.643 201.435 477.08C203.83 476.475 206.288 476.149 208.758 476.109C206.914 477.753 204.885 479.177 202.713 480.354C200.615 481.52 198.439 482.54 196.201 483.407C193.966 484.281 191.674 485.002 189.341 485.566C186.945 486.17 184.489 486.497 182.019 486.543ZM177.048 495.08C178.658 493.686 180.444 492.51 182.36 491.582C184.194 490.67 186.097 489.905 188.051 489.294C190.004 488.677 192.003 488.218 194.029 487.922C196.133 487.59 198.272 487.54 200.39 487.772C198.783 489.171 196.997 490.349 195.079 491.276C193.246 492.189 191.342 492.952 189.387 493.558C187.433 494.171 185.433 494.628 183.407 494.924C181.304 495.255 179.166 495.307 177.048 495.08Z" fill="#8B9D36"/>
<path d="M173.125 502.741C174.894 501.043 176.853 499.554 178.963 498.305C181.001 497.072 183.12 495.978 185.306 495.033C187.489 494.082 189.736 493.283 192.03 492.642C194.385 491.957 196.813 491.549 199.263 491.426C197.497 493.129 195.538 494.619 193.427 495.868C191.39 497.102 189.27 498.194 187.081 499.134C184.896 500.081 182.649 500.878 180.355 501.519C178 502.203 175.574 502.613 173.125 502.741ZM195.389 461.224C195.062 458.84 195.121 456.419 195.563 454.054C195.952 451.824 196.564 449.639 197.39 447.531C198.208 445.421 199.24 443.4 200.469 441.499C201.75 439.461 203.354 437.644 205.218 436.12C205.551 438.504 205.495 440.927 205.052 443.293C204.664 445.523 204.049 447.707 203.217 449.812C202.392 451.921 201.358 453.94 200.129 455.842C198.848 457.878 197.247 459.695 195.389 461.224Z" fill="#8B9D36"/>
<path d="M169.338 505.557L168.445 505.541C168.484 503.099 169.545 445.505 181.067 427.264L181.823 427.742C170.434 445.772 169.348 504.961 169.338 505.557Z" fill="#50661A"/>
<path d="M177.743 435.491C178.097 432.819 178.187 430.119 178.011 427.429C177.863 424.808 177.572 422.198 177.14 419.608C176.722 417.029 176.154 414.476 175.486 411.944C174.819 409.395 173.977 406.943 173.077 404.331C172.822 404.979 172.629 405.65 172.5 406.335C172.356 407.007 172.25 407.687 172.185 408.372C172.045 409.715 171.984 411.065 172.003 412.415C172.042 415.071 172.286 417.72 172.731 420.339C173.164 422.95 173.777 425.528 174.564 428.054C175.343 430.644 176.41 433.138 177.743 435.491ZM191.906 399.02C189.926 400.93 188.227 403.112 186.862 405.5C185.533 407.765 184.402 410.142 183.482 412.602C182.554 415.059 181.844 417.594 181.36 420.175C180.819 422.874 180.67 425.636 180.917 428.377C182.904 426.472 184.605 424.291 185.969 421.9C187.3 419.636 188.428 417.258 189.342 414.795C190.263 412.335 190.971 409.8 191.456 407.219C191.994 404.521 192.146 401.761 191.906 399.02ZM201.402 413.699C199.052 415.586 196.833 417.631 194.76 419.818C192.707 421.946 190.748 424.121 188.831 426.308L183.137 432.842C182.182 433.912 181.216 434.966 180.197 435.965C179.189 437.023 178.015 437.91 176.722 438.59C177.511 438.728 178.319 438.707 179.1 438.529C179.887 438.372 180.656 438.131 181.391 437.809C182.831 437.176 184.199 436.392 185.472 435.469C187.943 433.66 190.198 431.574 192.194 429.251C194.179 426.976 195.966 424.535 197.535 421.955C199.151 419.368 200.449 416.596 201.402 413.699ZM201.402 428.377C198.505 429.823 195.742 431.522 193.145 433.455C190.574 435.334 188.102 437.343 185.736 439.475C183.366 441.601 181.108 443.848 178.97 446.209C176.776 448.589 174.798 451.161 173.061 453.894C175.961 452.452 178.726 450.754 181.323 448.821C183.893 446.942 186.365 444.931 188.727 442.796C191.094 440.666 193.351 438.417 195.489 436.058C197.682 433.677 199.661 431.106 201.402 428.377ZM200.436 439.894C197.518 441.252 194.726 442.866 192.094 444.717C189.49 446.517 186.981 448.449 184.575 450.505C182.165 452.556 179.863 454.732 177.68 457.023C175.439 459.334 173.41 461.841 171.617 464.514C174.538 463.161 177.332 461.549 179.964 459.695C182.568 457.897 185.076 455.963 187.478 453.903C189.885 451.848 192.185 449.671 194.369 447.38C196.609 445.069 198.639 442.564 200.436 439.894ZM199.792 452.204C196.889 453.296 194.091 454.653 191.436 456.257C188.815 457.811 186.279 459.503 183.839 461.327C181.394 463.144 179.05 465.093 176.816 467.165C174.522 469.254 172.427 471.552 170.56 474.03C173.466 472.943 176.264 471.588 178.919 469.982C181.541 468.429 184.076 466.735 186.513 464.907C188.955 463.086 191.298 461.135 193.532 459.064C195.825 456.974 197.921 454.678 199.792 452.204ZM200.436 461.135C197.398 462.357 194.472 463.842 191.693 465.574C188.944 467.255 186.282 469.073 183.717 471.022C181.147 472.966 178.679 475.039 176.322 477.236C173.906 479.447 171.69 481.867 169.701 484.469C172.741 483.251 175.668 481.768 178.447 480.035C181.196 478.355 183.857 476.535 186.42 474.581C188.987 472.634 191.454 470.559 193.811 468.363C196.226 466.151 198.442 463.733 200.436 461.135ZM202.689 469.503C199.526 470.974 196.472 472.669 193.55 474.574C190.649 476.432 187.842 478.395 185.105 480.444C182.36 482.481 179.691 484.605 177.07 486.8C174.421 488.976 171.919 491.242 169.178 493.486C170.938 493.197 172.656 492.695 174.296 491.993C175.919 491.314 177.505 490.551 179.047 489.706C182.081 488.008 184.999 486.11 187.78 484.024C190.55 481.947 193.199 479.712 195.713 477.33C198.274 474.941 200.609 472.321 202.689 469.503ZM205.425 478.193C202.007 479.521 198.69 481.097 195.501 482.908C192.332 484.673 189.256 486.569 186.252 488.564C183.246 490.558 180.313 492.656 177.453 494.856C176.023 495.959 174.607 497.082 173.205 498.224C171.848 499.427 170.407 500.53 168.892 501.526C169.842 501.527 170.785 501.365 171.68 501.047C172.578 500.781 173.451 500.458 174.313 500.121C176.034 499.438 177.696 498.657 179.327 497.829C182.564 496.162 185.702 494.311 188.727 492.284C191.751 490.273 194.671 488.109 197.476 485.801C200.332 483.489 202.99 480.944 205.425 478.193ZM174.969 445.714C174.824 442.811 174.394 439.929 173.686 437.109C173.018 434.341 172.192 431.613 171.213 428.939C170.24 426.263 169.113 423.645 167.837 421.099C166.56 418.487 165.026 416.008 163.259 413.699C163.399 416.603 163.827 419.486 164.536 422.306C165.204 425.074 166.032 427.802 167.016 430.474C167.993 433.149 169.122 435.766 170.397 438.312C171.675 440.923 173.207 443.402 174.969 445.714ZM173.061 455.763C172.513 452.875 171.686 450.047 170.591 447.318C169.542 444.635 168.343 442.013 166.999 439.465C165.661 436.913 164.178 434.441 162.557 432.059C160.926 429.613 159.059 427.332 156.983 425.25C157.526 428.14 158.351 430.969 159.447 433.697C160.495 436.381 161.697 439.002 163.045 441.548C164.387 444.097 165.872 446.569 167.492 448.951C169.124 451.396 170.989 453.677 173.061 455.763ZM171.617 465.48C170.677 462.548 169.467 459.71 168.002 457.002C166.587 454.331 165.029 451.738 163.335 449.235C161.648 446.727 159.824 444.313 157.873 442.004C155.907 439.634 153.723 437.453 151.349 435.491C152.285 438.425 153.494 441.265 154.96 443.972C156.375 446.644 157.934 449.236 159.632 451.737C161.324 454.242 163.149 456.654 165.099 458.963C167.066 461.332 169.248 463.514 171.617 465.48ZM170.56 476.201C169.085 473.032 167.354 469.989 165.383 467.102C163.459 464.231 161.406 461.465 159.224 458.805C157.05 456.14 154.749 453.577 152.323 451.117C149.886 448.61 147.246 446.309 144.429 444.239C145.898 447.411 147.628 450.455 149.601 453.341C151.525 456.212 153.579 458.976 155.764 461.634C157.944 464.296 160.246 466.857 162.671 469.318C165.108 471.824 167.747 474.125 170.56 476.201ZM169.701 487.317C167.893 484.305 165.843 481.445 163.571 478.765C161.347 476.095 159.006 473.544 156.547 471.112C154.095 468.673 151.528 466.349 148.847 464.14C146.151 461.886 143.274 459.858 140.245 458.078C142.048 461.094 144.096 463.956 146.37 466.635C148.594 469.304 150.937 471.853 153.398 474.283C155.855 476.718 158.423 479.04 161.103 481.25C163.799 483.502 166.675 485.531 169.701 487.317ZM169.178 494.446C167.173 491.847 164.944 489.427 162.518 487.215C160.149 485.019 157.671 482.944 155.093 480.997C152.52 479.043 149.849 477.223 147.09 475.544C144.3 473.811 141.363 472.329 138.313 471.112C140.315 473.715 142.543 476.136 144.97 478.347C147.338 480.544 149.818 482.618 152.398 484.561C154.974 486.51 157.647 488.329 160.406 490.009C163.196 491.74 166.131 493.224 169.178 494.446ZM168.892 500.4C166.486 498.028 163.883 495.864 161.111 493.931C158.391 491.997 155.587 490.208 152.701 488.564C149.819 486.911 146.856 485.4 143.813 484.029C140.742 482.618 137.556 481.473 134.29 480.606C136.693 482.983 139.295 485.148 142.068 487.08C144.789 489.014 147.593 490.801 150.481 492.442C153.366 494.09 156.329 495.599 159.372 496.971C162.442 498.381 165.627 499.528 168.892 500.4ZM169.114 504.262C166.227 502.27 163.183 500.517 160.011 499.019C156.888 497.511 153.703 496.168 150.467 494.966C147.231 493.762 143.939 492.711 140.59 491.812C137.208 490.878 133.755 490.225 130.266 489.859C133.15 491.857 136.194 493.612 139.367 495.108C142.491 496.615 145.673 497.964 148.913 499.155C152.151 500.353 155.442 501.41 158.793 502.303C162.175 503.235 165.626 503.89 169.114 504.262Z" fill="#50661A"/>
<path d="M167.55 503.954C166.669 502.486 145.925 467.921 142.569 458.972L143.407 458.659C146.733 467.529 168.101 503.135 168.317 503.493L167.55 503.954Z" fill="#5E7C24"/>
<path d="M150.185 440.13C149.28 442.367 148.589 444.684 148.119 447.052C147.639 449.37 147.287 451.713 147.063 454.07C146.834 456.426 146.737 458.793 146.773 461.16C146.786 463.574 147.03 465.981 147.502 468.348C148.411 466.112 149.104 463.794 149.572 461.426C150.053 459.108 150.404 456.765 150.623 454.408C150.848 452.051 150.943 449.684 150.909 447.317C150.894 444.904 150.651 442.497 150.185 440.13ZM158.071 450.911C156.97 452.995 156.072 455.181 155.391 457.438C154.704 459.643 154.142 461.886 153.707 464.155C153.266 466.423 152.956 468.715 152.777 471.018C152.573 473.367 152.599 475.73 152.854 478.074C153.96 475.991 154.859 473.806 155.539 471.548C156.227 469.342 156.787 467.099 157.218 464.829C157.655 462.561 157.964 460.269 158.143 457.966C158.346 455.617 158.322 453.255 158.071 450.911ZM162.416 463.463C161.446 465.4 160.682 467.433 160.135 469.529C159.582 471.571 159.156 473.645 158.858 475.739C158.554 477.832 158.382 479.942 158.342 482.057C158.279 484.223 158.446 486.389 158.839 488.52C159.813 486.584 160.58 484.551 161.126 482.454C161.679 480.413 162.103 478.339 162.397 476.244C162.697 474.15 162.868 472.04 162.909 469.925C162.971 467.76 162.805 465.594 162.416 463.463ZM167.888 475.991C166.914 477.614 166.138 479.347 165.575 481.154C165.011 482.899 164.573 484.682 164.262 486.489C163.945 488.295 163.758 490.122 163.705 491.955C163.628 493.846 163.78 495.74 164.158 497.595C165.135 495.974 165.914 494.241 166.476 492.433C167.04 490.688 167.477 488.905 167.785 487.097C168.097 485.29 168.282 483.464 168.337 481.631C168.412 479.74 168.261 477.847 167.888 475.991ZM172.716 483.822C171.723 485.229 170.903 486.751 170.274 488.355C169.658 489.886 169.145 491.457 168.739 493.057C168.336 494.645 168.027 496.255 167.811 497.879C167.711 498.698 167.619 499.512 167.558 500.341C167.526 501.187 167.436 502.029 167.288 502.862C167.494 502.752 167.693 502.626 167.882 502.488L168.364 502.005C168.671 501.675 168.953 501.323 169.207 500.95C169.696 500.233 170.129 499.479 170.503 498.695C171.228 497.171 171.798 495.577 172.204 493.939C172.617 492.315 172.885 490.657 173.004 488.986C173.149 487.26 173.052 485.522 172.716 483.822ZM145.495 464.492C143.873 462.713 142.047 461.13 140.056 459.776C138.137 458.443 136.128 457.245 134.043 456.191C131.961 455.131 129.807 454.219 127.597 453.463C125.326 452.658 122.968 452.126 120.572 451.877C122.191 453.66 124.016 455.245 126.009 456.598C127.927 457.932 129.937 459.128 132.024 460.178C134.108 461.234 136.263 462.144 138.473 462.901C140.744 463.704 143.1 464.238 145.495 464.492ZM150.839 474.471C148.764 472.775 146.515 471.303 144.129 470.08C141.813 468.865 139.423 467.795 136.974 466.876C134.527 465.95 132.025 465.18 129.481 464.57C126.88 463.918 124.217 463.547 121.538 463.463C123.61 465.164 125.858 466.638 128.244 467.86C130.561 469.076 132.951 470.144 135.402 471.059C137.85 471.98 140.354 472.748 142.897 473.359C145.498 474.009 148.16 474.382 150.839 474.471ZM157.128 485.563C155.281 483.924 153.252 482.501 151.08 481.324C148.982 480.158 146.807 479.137 144.571 478.265C142.337 477.387 140.046 476.664 137.713 476.101C135.317 475.495 132.86 475.17 130.389 475.13C132.234 476.774 134.263 478.198 136.435 479.375C138.533 480.541 140.708 481.561 142.947 482.428C145.182 483.301 147.474 484.023 149.807 484.587C152.202 485.191 154.659 485.518 157.128 485.563ZM162.099 494.101C160.49 492.707 158.704 491.531 156.787 490.603C154.954 489.691 153.051 488.926 151.097 488.315C149.144 487.697 147.145 487.239 145.119 486.943C143.014 486.611 140.875 486.561 138.758 486.793C140.365 488.192 142.15 489.37 144.068 490.297C145.901 491.21 147.805 491.973 149.761 492.579C151.715 493.192 153.714 493.649 155.74 493.945C157.844 494.276 159.982 494.328 162.099 494.101Z" fill="#5E7C24"/>
<path d="M166.023 501.762C164.254 500.064 162.295 498.575 160.184 497.326C158.147 496.092 156.028 494.999 153.842 494.054C151.658 493.102 149.412 492.303 147.118 491.663C144.762 490.978 142.335 490.57 139.885 490.447C141.651 492.149 143.609 493.64 145.721 494.889C147.758 496.123 149.878 497.214 152.066 498.155C154.251 499.102 156.499 499.899 158.793 500.54C161.148 501.224 163.574 501.634 166.023 501.762ZM143.759 460.245C144.086 457.861 144.027 455.44 143.585 453.075C143.196 450.845 142.584 448.66 141.758 446.552C140.94 444.442 139.908 442.421 138.679 440.52C137.397 438.482 135.794 436.665 133.93 435.141C133.596 437.525 133.652 439.948 134.096 442.314C134.484 444.544 135.099 446.728 135.931 448.833C136.755 450.941 137.79 452.961 139.018 454.863C140.3 456.899 141.901 458.716 143.759 460.245Z" fill="#5E7C24"/>
<path d="M305.222 216.02C319.796 216.02 331.61 204.207 331.61 189.635C331.61 175.063 319.796 163.251 305.222 163.251C290.649 163.251 278.834 175.063 278.834 189.635C278.834 204.207 290.649 216.02 305.222 216.02Z" fill="#F2F2F2"/>
<path d="M610.909 504.577H121.273V506.534H610.909V504.577Z" fill="#935B50"/>
<path d="M205.34 505.17L221.99 423.231H241.338L211.562 505.17H205.34Z" fill="#935B50"/>
<path d="M520.368 423.231L538.324 505.17H529.474L500.36 423.231H520.368Z" fill="#935B50"/>
<path d="M530.152 402.787H215.871C210.225 402.787 205.648 407.364 205.648 413.009C205.648 418.655 210.225 423.231 215.871 423.231H530.152C535.799 423.231 540.376 418.655 540.376 413.009C540.376 407.364 535.799 402.787 530.152 402.787Z" fill="#C38F86"/>
<path d="M342.851 477.227L341.447 491.22L365.75 503.098L328.427 503.093L328.431 477.224L342.851 477.227Z" fill="#F9977A"/>
<path d="M387.613 477.234L386.209 491.228L410.512 503.107L373.189 503.1L373.194 477.232L387.613 477.234Z" fill="#F9977A"/>
<path d="M414.259 504.379V504.293C414.259 503.639 414.077 502.997 413.734 502.44C413.391 501.883 412.9 501.432 412.315 501.137L387.09 488.42C386.843 488.296 386.56 488.262 386.291 488.325C386.022 488.388 385.783 488.544 385.617 488.764L380.685 495.326C380.51 495.559 380.255 495.718 379.969 495.774C379.683 495.83 379.387 495.778 379.137 495.628L373.35 492.155C373.171 492.048 372.967 491.99 372.758 491.987C372.55 491.984 372.345 492.037 372.163 492.14C371.982 492.242 371.831 492.391 371.726 492.571C371.621 492.752 371.565 492.956 371.565 493.165L371.563 504.372C371.563 504.526 371.594 504.68 371.653 504.823C371.712 504.965 371.799 505.095 371.908 505.205C372.018 505.314 372.148 505.401 372.29 505.46C372.433 505.519 372.587 505.55 372.741 505.55L413.08 505.557C413.235 505.557 413.388 505.526 413.531 505.467C413.674 505.408 413.804 505.321 413.913 505.212C414.023 505.102 414.11 504.973 414.169 504.83C414.228 504.687 414.258 504.534 414.259 504.379ZM369.496 504.371V504.286C369.496 503.632 369.314 502.99 368.971 502.433C368.628 501.876 368.137 501.424 367.553 501.13L342.327 488.413C342.08 488.289 341.797 488.255 341.528 488.318C341.259 488.381 341.021 488.536 340.855 488.757L335.922 495.318C335.747 495.551 335.492 495.711 335.206 495.767C334.921 495.823 334.624 495.771 334.374 495.621L328.587 492.147C328.408 492.04 328.204 491.982 327.996 491.98C327.787 491.977 327.582 492.03 327.4 492.132C327.219 492.235 327.068 492.384 326.963 492.564C326.858 492.744 326.803 492.949 326.803 493.157L326.801 504.364C326.801 504.519 326.831 504.672 326.89 504.815C326.949 504.958 327.036 505.088 327.146 505.197C327.255 505.307 327.385 505.393 327.528 505.453C327.671 505.512 327.824 505.542 327.979 505.542L368.317 505.549C368.472 505.549 368.625 505.519 368.768 505.46C368.911 505.4 369.041 505.314 369.151 505.204C369.26 505.095 369.347 504.965 369.406 504.822C369.465 504.679 369.496 504.526 369.496 504.371Z" fill="#F2F2F2"/>
<path d="M390.099 303.906C390.099 303.906 392.331 340.136 392.33 348.654L392.321 398.916C392.321 400.985 392.219 403.051 392.016 405.114L393.02 480.696C392.948 481.43 392.604 482.111 392.058 482.606C391.511 483.101 390.799 483.376 390.062 483.376C386.798 485.531 382.884 486.475 378.996 486.045C376.467 485.724 374.049 484.808 371.941 483.372C371.173 483.023 368.969 481.943 368.969 480.4C368.969 480.328 368.972 480.256 368.977 480.184L366.099 416.372C366.527 410.509 366.133 404.614 364.93 398.859L346.198 309.248L390.099 303.906Z" fill="#002D69"/>
<path d="M334.235 483.765C331.456 483.189 327.831 482.071 326.98 481.221C326.704 480.945 326.485 480.617 326.335 480.257C326.186 479.896 326.11 479.509 326.11 479.119L326.119 427.282C326.12 417.153 327.262 407.056 329.521 397.181C329.925 395.411 330.087 393.594 330.001 391.78C329.367 378.432 327.003 319.893 333.661 309.246L376.236 306.11L345.852 480.581C345.608 482.009 339.36 484.827 334.235 483.765Z" fill="#002D69"/>
<path d="M341.513 373.084L341.74 372.726C334.53 368.146 332.831 354.471 332.815 354.334L332.394 354.383C332.41 354.523 334.131 368.396 341.513 373.084Z" fill="#B02336"/>
<path d="M357.389 316.574C381.685 316.578 390.674 309.248 390.787 309.152L390.512 308.829C390.368 308.949 375.637 320.921 332.645 314.001L332.577 314.42C340.777 315.795 349.074 316.515 357.389 316.574Z" fill="#065082"/>
<path d="M374.459 314.904L362.223 386.872L362.642 386.943L374.878 314.975L374.459 314.904Z" fill="#B02336"/>
<path d="M371.541 332.75L371.796 332.41L368.6 330.001L370.98 315.596L370.563 315.525L368.141 330.186L371.541 332.75Z" fill="#B02336"/>
<path d="M341.506 378.786L341.745 378.437C335.915 374.445 332.831 366.588 332.8 366.509L332.404 366.662C332.435 366.742 335.565 374.719 341.506 378.786ZM379.971 434.077L380.198 433.719C372.987 429.138 371.288 415.463 371.272 415.326L370.851 415.375C370.867 415.515 372.588 429.389 379.971 434.077ZM379.963 439.778L380.203 439.429C374.37 435.435 371.288 427.58 371.257 427.501L370.861 427.655C370.892 427.734 374.023 435.712 379.963 439.778Z" fill="#B02336"/>
<path d="M379.516 179.842L378.876 189.104C378.668 192.861 378.859 196.629 379.446 200.345C380.12 205.03 373.934 212.428 371.68 212.52V221.836C372.258 228.255 368.029 233.457 363.571 234.053C358.456 234.736 352.164 229.474 352.504 221.836V200.047C352.504 200.047 344.669 198.604 349.205 190.872C351.901 186.359 353.491 181.273 353.844 176.028L362.298 169.637L379.516 179.842Z" fill="#F9977A"/>
<path d="M317.966 268.486C317.966 268.486 317.011 248.831 324.01 234.284C325.887 230.388 328.947 227.185 332.754 225.133C337.144 222.765 344.677 218.626 352.504 216.545C352.438 222.326 357.019 223.471 362.505 223.358C367.639 223.252 371.449 223.379 371.68 217.983C383.832 220.713 389.817 225.553 391.904 229.965C396.054 238.735 396.678 257.123 396.678 257.123L390.254 258.396C390.254 258.396 391.865 306.913 390.592 312.146C384.312 313.576 377.773 318.426 369.969 319.118C355.387 320.412 342.035 315.87 331.786 314.336C333.121 308.375 334.337 302.004 335.351 295.25C336.708 286.207 337.61 277.101 338.053 267.967L317.966 268.486Z" fill="#007DFE"/>
<path d="M360.34 183.828C360.213 183.828 360.091 183.786 359.991 183.709C359.89 183.632 359.818 183.524 359.786 183.402C359.754 183.28 359.762 183.151 359.811 183.034C359.86 182.918 359.946 182.82 360.056 182.758C361.085 182.244 362.219 181.976 363.369 181.974C364.519 181.972 365.654 182.237 366.685 182.746C366.819 182.816 366.92 182.937 366.965 183.081C367.011 183.225 366.998 183.382 366.929 183.516C366.859 183.65 366.74 183.752 366.596 183.799C366.452 183.845 366.295 183.833 366.16 183.764C366.131 183.751 363.195 182.281 360.623 183.753C360.537 183.802 360.439 183.828 360.34 183.828ZM371.681 183.828C371.555 183.828 371.432 183.787 371.331 183.71C371.231 183.633 371.159 183.525 371.127 183.403C371.094 183.28 371.103 183.151 371.152 183.034C371.2 182.918 371.286 182.82 371.396 182.758C372.425 182.244 373.559 181.976 374.709 181.974C375.859 181.972 376.994 182.236 378.025 182.746C378.092 182.781 378.151 182.828 378.2 182.885C378.248 182.943 378.285 183.009 378.308 183.081C378.331 183.152 378.34 183.227 378.334 183.302C378.328 183.377 378.307 183.45 378.272 183.517C378.238 183.584 378.191 183.643 378.133 183.692C378.076 183.74 378.01 183.777 377.938 183.8C377.867 183.823 377.791 183.832 377.716 183.826C377.641 183.819 377.569 183.799 377.502 183.764C376.639 183.347 375.693 183.129 374.734 183.127C373.775 183.125 372.829 183.339 371.964 183.753C371.878 183.802 371.78 183.828 371.681 183.828ZM375.289 191.354C375.734 191.338 376.156 191.15 376.465 190.83C376.775 190.509 376.948 190.081 376.948 189.636C376.948 189.19 376.775 188.762 376.465 188.441C376.156 188.121 375.734 187.933 375.289 187.918C374.843 187.933 374.421 188.121 374.112 188.441C373.802 188.762 373.629 189.19 373.629 189.636C373.629 190.081 373.802 190.509 374.112 190.83C374.421 191.15 374.843 191.338 375.289 191.354ZM363.536 191.251C363.981 191.235 364.403 191.047 364.712 190.727C365.022 190.406 365.195 189.978 365.195 189.532C365.195 189.087 365.022 188.659 364.712 188.338C364.403 188.018 363.981 187.83 363.536 187.814C363.09 187.83 362.668 188.018 362.359 188.338C362.049 188.659 361.876 189.087 361.876 189.532C361.876 189.978 362.049 190.406 362.359 190.727C362.668 191.047 363.09 191.235 363.536 191.251Z" fill="#1E1D22"/>
<path d="M370.237 187.973C371.3 189.385 372.108 190.972 372.624 192.662C372.904 193.527 373.013 194.438 372.943 195.344C372.903 195.823 372.716 196.277 372.409 196.647C372.249 196.814 372.056 196.947 371.841 197.035C371.627 197.124 371.397 197.167 371.165 197.161C371.571 197.054 371.922 196.798 372.148 196.445C372.338 196.096 372.431 195.703 372.419 195.307C372.386 194.472 372.237 193.646 371.977 192.852C371.496 191.218 370.831 189.625 370.237 187.973ZM371.68 212.52C371.68 212.52 365.494 212.204 362.505 209.373C362.505 209.373 366.319 216.953 371.68 217.984V212.52Z" fill="#DD765E"/>
<path d="M384.052 177.059C384.052 177.059 383.949 172.833 376.526 170.977C369.103 169.122 367.659 164.998 363.381 166.132C360.618 166.993 358.187 168.685 356.422 170.977C356.422 170.977 342.985 168.922 349.497 190.36C349.497 190.36 354.36 196.027 354.875 190.975C355.391 185.924 356.525 177.265 359.308 174.997C362.092 172.73 366.422 174.997 368.072 176.234C369.721 177.471 380.031 184.79 381.062 184.172C382.093 183.553 386.217 182.316 384.052 177.059Z" fill="#1E1D22"/>
<path d="M352.504 216.545L362.505 223.358L357.504 230.231L346.639 218.468L352.504 216.545Z" fill="#002D69"/>
<path d="M362.505 223.358L371.681 217.984L375.891 219.083L366.193 229.174L362.505 223.358Z" fill="#002D69"/>
<path d="M346.64 218.468C348.547 220.34 350.44 222.224 352.289 224.149L355.075 227.026C356.01 227.979 356.907 228.967 357.825 229.935L357.151 229.975C358.81 227.677 360.427 225.35 362.12 223.078L362.54 222.515L362.907 223.103L366.55 228.948L365.889 228.882C367.52 227.214 369.195 225.588 370.845 223.939C372.507 222.301 374.189 220.683 375.891 219.083C374.363 220.849 372.812 222.594 371.24 224.318C369.657 226.033 368.099 227.77 366.498 229.466L366.131 229.855L365.837 229.4L362.103 223.613L362.889 223.638C361.249 225.948 359.532 228.203 357.858 230.489L357.539 230.924L357.183 230.528C356.291 229.536 355.377 228.564 354.501 227.556L351.854 224.551C350.082 222.555 348.354 220.518 346.64 218.468Z" fill="#002D69"/>
<path d="M362.505 223.358C364.461 230.86 366.014 238.463 367.394 246.093C368.761 253.728 369.854 261.407 370.672 269.131C371.497 276.852 371.899 284.612 371.876 292.377C371.92 300.147 371.094 307.897 369.415 315.483L370.299 309.742C370.564 307.828 370.637 305.888 370.815 303.965C371.03 302.044 371.016 300.105 371.082 298.174L371.16 295.277C371.187 294.311 371.133 293.344 371.123 292.377C371.088 284.645 370.5 276.922 369.699 269.231C368.972 261.528 367.86 253.864 366.654 246.218C366.064 242.392 365.402 238.577 364.7 234.769C364.029 230.955 363.285 227.154 362.505 223.358ZM390.254 258.396C389.932 256.91 389.695 255.415 389.471 253.918C389.239 252.422 389.068 250.92 388.897 249.418C388.744 247.913 388.594 246.409 388.503 244.898C388.405 243.388 388.319 241.876 388.321 240.355C388.644 241.841 388.88 243.337 389.104 244.834C389.336 246.329 389.508 247.831 389.678 249.334C389.829 250.838 389.98 252.343 390.07 253.854C390.168 255.364 390.254 256.876 390.254 258.396Z" fill="#5E7C24"/>
<path d="M391.15 253.068H408.597L394.828 279.093L377.569 279.566L391.15 253.068Z" fill="#935B50"/>
<path d="M338.054 267.968V276.643L370.496 266.459C370.496 266.459 373.231 259.575 382.285 260.518L383.322 262.31C383.322 262.31 395.582 262.404 395.488 264.573L394.828 265.422C394.828 265.422 398.507 265.61 395.489 268.156C395.489 268.156 396.525 270.137 393.319 271.08C390.112 272.023 384.36 273.531 384.36 273.531C384.886 273.942 385.502 274.224 386.156 274.355C386.811 274.486 387.488 274.462 388.132 274.286C389.233 273.914 390.372 273.661 391.527 273.531C391.669 273.718 391.764 273.937 391.802 274.169C391.841 274.401 391.822 274.639 391.748 274.862C391.673 275.085 391.546 275.287 391.376 275.449C391.206 275.612 390.999 275.73 390.773 275.794C388.981 276.455 386.717 277.775 385.68 277.775C384.643 277.775 374.834 279.284 374.834 279.284L335.358 296.795C333.698 297.532 331.882 297.847 330.071 297.714C328.26 297.581 326.51 297.004 324.975 296.033C323.441 295.062 322.17 293.728 321.274 292.148C320.379 290.568 319.887 288.792 319.842 286.977L319.38 268.345L338.054 267.968Z" fill="#F9977A"/>
<path d="M399.355 258.302C399.66 258.291 399.95 258.162 400.162 257.943C400.375 257.723 400.493 257.429 400.493 257.123C400.493 256.818 400.375 256.524 400.162 256.304C399.95 256.084 399.66 255.955 399.355 255.945C399.049 255.955 398.76 256.084 398.547 256.304C398.335 256.524 398.216 256.818 398.216 257.123C398.216 257.429 398.335 257.723 398.547 257.943C398.76 258.162 399.049 258.291 399.355 258.302Z" fill="#6C7FD8"/>
<path d="M406.452 257.123C406.452 257.123 408.838 259.503 403.41 266.318C403.462 266.771 403.413 267.23 403.266 267.662C403.119 268.094 402.879 268.489 402.561 268.816C402.82 269.146 402.961 269.553 402.961 269.972C402.961 270.391 402.82 270.797 402.561 271.127C402.736 271.564 402.768 272.045 402.654 272.502C402.54 272.959 402.284 273.369 401.925 273.673C401.925 273.673 401.783 276.572 399.873 276.572H396.161C396.161 276.572 394.986 275.681 396.161 275.016C396.161 275.016 393.367 274.875 395.489 272.895C395.489 272.895 394.215 271.48 396.125 270.066C395.956 269.863 395.835 269.625 395.771 269.37C395.707 269.114 395.701 268.847 395.754 268.589C395.807 268.331 395.918 268.088 396.078 267.878C396.238 267.669 396.443 267.498 396.678 267.378C398.334 267.125 399.974 266.771 401.587 266.318L406.452 257.123Z" fill="#F9977A"/>
<path d="M332.961 280.792C333.502 279.801 334.216 278.916 335.071 278.179C335.915 277.417 336.943 276.888 338.053 276.643C337.067 277.13 336.15 277.747 335.327 278.477C334.496 279.204 333.706 279.977 332.961 280.792ZM394.828 265.422C393.607 265.556 392.379 265.622 391.15 265.618C389.921 265.623 388.693 265.557 387.472 265.422C388.693 265.286 389.921 265.221 391.15 265.225C392.378 265.221 393.606 265.287 394.828 265.422ZM383.322 262.31C382.846 262.443 382.354 262.509 381.86 262.506C381.366 262.51 380.874 262.444 380.398 262.31C380.874 262.176 381.366 262.11 381.86 262.114C382.354 262.111 382.846 262.177 383.322 262.31ZM395.489 268.156C394.311 268.4 393.12 268.575 391.923 268.681C390.726 268.797 389.523 268.842 388.321 268.816C389.498 268.572 390.689 268.396 391.887 268.291C393.084 268.177 394.286 268.132 395.489 268.156ZM401.587 266.318C401.677 266.158 401.811 266.028 401.973 265.944C402.135 265.86 402.318 265.824 402.5 265.843C402.677 265.86 402.849 265.908 403.01 265.984C403.167 266.064 403.304 266.178 403.41 266.318C403.051 266.311 402.768 266.231 402.479 266.234C402.179 266.208 401.877 266.237 401.587 266.318ZM396.125 270.066C397.167 269.726 398.229 269.453 399.306 269.248C400.38 269.035 401.468 268.89 402.561 268.816C401.52 269.157 400.457 269.43 399.38 269.634C398.305 269.846 397.218 269.991 396.125 270.066ZM395.489 272.895C396.64 272.474 397.823 272.194 398.999 271.891L400.778 271.501C401.372 271.375 401.972 271.281 402.561 271.127C402.017 271.408 401.444 271.632 400.853 271.794C400.27 271.975 399.678 272.118 399.09 272.273C397.904 272.557 396.701 272.765 395.489 272.895ZM396.161 275.016C397.097 274.698 398.051 274.433 399.018 274.225C399.984 274.026 400.943 273.833 401.925 273.673C401.026 274.098 400.078 274.412 399.103 274.608C398.135 274.825 397.151 274.962 396.161 275.016Z" fill="#DD765E"/>
<path d="M338.054 267.967C337.983 266.458 338.018 264.952 338.078 263.447C338.132 261.941 338.264 260.441 338.414 258.942C338.585 257.445 338.785 255.949 339.083 254.468C339.339 252.975 339.76 251.515 340.34 250.115C340.195 250.858 340.052 251.589 339.964 252.334C339.854 253.074 339.76 253.817 339.68 254.561L339.195 259.027C339.026 260.516 338.874 262.007 338.678 263.496C338.492 264.987 338.306 266.478 338.054 267.967ZM362.731 239.103C363.112 239.09 363.473 238.929 363.737 238.655C364.002 238.381 364.15 238.015 364.15 237.634C364.15 237.253 364.002 236.887 363.737 236.613C363.473 236.339 363.112 236.178 362.731 236.165C362.35 236.178 361.99 236.339 361.725 236.613C361.46 236.887 361.312 237.253 361.312 237.634C361.312 238.015 361.46 238.381 361.725 238.655C361.99 238.929 362.35 239.09 362.731 239.103ZM364.494 250.383C364.875 250.369 365.235 250.209 365.5 249.935C365.765 249.661 365.913 249.295 365.913 248.914C365.913 248.533 365.765 248.167 365.5 247.893C365.235 247.619 364.875 247.458 364.494 247.445C364.113 247.458 363.752 247.619 363.488 247.893C363.223 248.167 363.075 248.533 363.075 248.914C363.075 249.295 363.223 249.661 363.488 249.935C363.752 250.209 364.113 250.369 364.494 250.383ZM366.609 262.367C366.99 262.354 367.351 262.194 367.615 261.92C367.88 261.646 368.028 261.28 368.028 260.899C368.028 260.518 367.88 260.152 367.615 259.878C367.351 259.604 366.99 259.443 366.609 259.43C366.228 259.443 365.868 259.604 365.603 259.878C365.338 260.152 365.19 260.518 365.19 260.899C365.19 261.28 365.338 261.646 365.603 261.92C365.868 262.194 366.228 262.354 366.609 262.367ZM368.724 288.804C369.105 288.791 369.466 288.631 369.73 288.357C369.995 288.083 370.143 287.717 370.143 287.336C370.143 286.955 369.995 286.589 369.73 286.315C369.466 286.041 369.105 285.88 368.724 285.867C368.343 285.88 367.983 286.041 367.718 286.315C367.453 286.589 367.305 286.955 367.305 287.336C367.305 287.717 367.453 288.083 367.718 288.357C367.983 288.631 368.343 288.791 368.724 288.804ZM368.724 301.494C369.105 301.481 369.466 301.32 369.73 301.046C369.995 300.772 370.143 300.406 370.143 300.025C370.143 299.644 369.995 299.278 369.73 299.004C369.466 298.73 369.105 298.57 368.724 298.557C368.343 298.57 367.983 298.73 367.718 299.004C367.453 299.278 367.305 299.644 367.305 300.025C367.305 300.406 367.453 300.772 367.718 301.046C367.983 301.32 368.343 301.481 368.724 301.494ZM367.314 312.421C367.695 312.408 368.056 312.248 368.32 311.974C368.585 311.7 368.733 311.334 368.733 310.953C368.733 310.572 368.585 310.206 368.32 309.932C368.056 309.658 367.695 309.497 367.314 309.484C366.933 309.497 366.573 309.658 366.308 309.932C366.043 310.206 365.895 310.572 365.895 310.953C365.895 311.334 366.043 311.7 366.308 311.974C366.573 312.248 366.933 312.408 367.314 312.421Z" fill="#292E33"/>
<path d="M367.436 201.102C367.436 201.102 370.486 203.903 373.038 201.964L367.436 201.102Z" fill="#DD2F22"/>
<path d="M361.673 199.045C363.078 199.339 364.543 199.075 365.757 198.308C366.57 197.808 367.487 197.505 368.437 197.423C368.94 197.383 369.446 197.41 369.941 197.502C370.487 197.594 371.013 197.779 371.497 198.047L370.742 197.837C370.983 197.832 371.224 197.83 371.465 197.836L370.709 198.047C370.967 197.903 371.238 197.783 371.519 197.69C371.762 197.607 372.012 197.544 372.265 197.5C372.761 197.408 373.267 197.381 373.77 197.419C374.72 197.501 375.639 197.804 376.451 198.305C376.995 198.672 377.61 198.922 378.256 199.037C379.009 199.176 379.78 199.179 380.534 199.045C379.927 199.728 379.133 200.219 378.251 200.458C377.368 200.697 376.435 200.672 375.566 200.389C374.964 200.206 374.335 200.131 373.706 200.166C373.425 200.19 373.146 200.238 372.873 200.309C372.739 200.344 372.612 200.394 372.487 200.435C372.397 200.47 372.308 200.509 372.222 200.554L371.465 200.764C371.224 200.77 370.983 200.768 370.742 200.763L369.986 200.553C369.899 200.509 369.811 200.469 369.72 200.435C369.595 200.393 369.469 200.34 369.334 200.307C369.061 200.236 368.782 200.187 368.501 200.163C367.872 200.127 367.242 200.202 366.639 200.385C365.771 200.668 364.838 200.692 363.957 200.454C363.075 200.216 362.281 199.727 361.673 199.045Z" fill="#1E1D22"/>
<path d="M537.332 280.644C580.84 280.644 616.111 245.378 616.111 201.875C616.111 158.372 580.84 123.106 537.332 123.106C493.823 123.106 458.553 158.372 458.553 201.875C458.553 245.378 493.823 280.644 537.332 280.644Z" fill="#E5E5E5"/>
<path d="M553.821 262.203C564.229 262.203 572.667 253.766 572.667 243.359C572.667 232.952 564.229 224.515 553.821 224.515C543.412 224.515 534.975 232.952 534.975 243.359C534.975 253.766 543.412 262.203 553.821 262.203Z" fill="#616161"/>
<path d="M549.472 252.791L549.455 252.79C549.219 252.787 548.987 252.737 548.771 252.642C548.556 252.548 548.362 252.41 548.201 252.237L541.956 245.547C541.642 245.21 541.475 244.762 541.491 244.302C541.508 243.841 541.706 243.406 542.043 243.092C542.38 242.778 542.827 242.611 543.288 242.626C543.748 242.642 544.183 242.84 544.498 243.176L549.497 248.531L563.167 234.454C563.327 234.29 563.516 234.16 563.726 234.069C563.936 233.979 564.161 233.93 564.389 233.927C564.618 233.924 564.844 233.965 565.056 234.05C565.269 234.134 565.462 234.259 565.626 234.418C565.79 234.577 565.92 234.767 566.011 234.977C566.101 235.186 566.15 235.412 566.153 235.64C566.156 235.868 566.115 236.095 566.03 236.307C565.946 236.519 565.821 236.713 565.662 236.876L550.719 252.263C550.557 252.43 550.363 252.563 550.149 252.653C549.935 252.744 549.705 252.791 549.472 252.791Z" fill="#F2F2F2"/>
<path d="M581.279 164.656H494.093V169.001H581.279V164.656Z" fill="white"/>
<path d="M581.7 175.201H494.513V179.546H581.7V175.201Z" fill="white"/>
<path d="M582.03 185.28H494.843V189.625H582.03V185.28Z" fill="white"/>
<path d="M582.03 195.807H494.843V200.152H582.03V195.807Z" fill="white"/>
<path d="M525.038 169.929H417.701C415.002 169.929 412.815 172.116 412.815 174.815V243.693C412.815 246.391 415.002 248.578 417.701 248.578H525.038C527.736 248.578 529.924 246.391 529.924 243.693V174.815C529.924 172.116 527.736 169.929 525.038 169.929Z" fill="#002D69"/>
<path d="M485.443 175.522H418.093V180.417H485.443V175.522Z" fill="#F2F2F2"/>
<path d="M412.815 203.349L529.924 203.349V184.503H412.815V203.349Z" fill="#F2F2F2"/>
<path d="M521.38 223.014H493.485V227.909H521.38V223.014Z" fill="#F2F2F2"/>
<path d="M507.432 235.63H480.166V240.525H507.432V235.63Z" fill="#F2F2F2"/>
<path d="M474.134 235.63H458.553V240.525H474.134V235.63Z" fill="#F2F2F2"/>
<path d="M488.458 223.014H472.877V227.909H488.458V223.014Z" fill="#F2F2F2"/>
<path d="M426.385 242.59C435.818 242.59 435.834 227.932 426.385 227.932C416.953 227.932 416.937 242.59 426.385 242.59ZM318.133 170.79C318.133 170.51 318.022 170.243 317.825 170.045C317.628 169.848 317.36 169.737 317.08 169.737H293.363C293.084 169.737 292.816 169.848 292.619 170.045C292.421 170.243 292.31 170.51 292.31 170.79V171.421C292.31 171.7 292.421 171.968 292.619 172.166C292.816 172.363 293.084 172.474 293.363 172.474H302.069C303.72 172.476 305.328 173.001 306.662 173.974C307.995 174.947 308.987 176.318 309.493 177.889C309.539 178.045 309.547 178.211 309.517 178.371C309.487 178.531 309.42 178.683 309.321 178.813C309.223 178.943 309.095 179.048 308.948 179.119C308.802 179.191 308.64 179.227 308.477 179.225H293.363C293.084 179.225 292.816 179.336 292.619 179.534C292.421 179.731 292.31 179.999 292.31 180.278V180.91C292.31 181.189 292.421 181.457 292.619 181.654C292.816 181.852 293.084 181.962 293.363 181.962H308.228C308.405 181.963 308.579 182.008 308.734 182.093C308.889 182.178 309.021 182.3 309.116 182.449C309.212 182.598 309.269 182.768 309.282 182.945C309.295 183.121 309.263 183.298 309.19 183.459C308.575 184.833 307.575 186 306.312 186.819C305.048 187.638 303.575 188.074 302.069 188.075H294.732C294.453 188.075 294.185 188.186 293.987 188.384C293.79 188.581 293.679 188.849 293.679 189.128V190.447C293.679 190.678 293.755 190.903 293.895 191.086L307.343 208.697C307.513 208.919 307.763 209.065 308.04 209.102C308.317 209.139 308.597 209.065 308.819 208.895L309.321 208.512C309.431 208.428 309.523 208.324 309.593 208.204C309.662 208.084 309.707 207.952 309.726 207.815C309.744 207.678 309.735 207.539 309.7 207.405C309.664 207.272 309.603 207.146 309.519 207.036L298.42 192.504C298.301 192.348 298.228 192.162 298.209 191.966C298.19 191.771 298.226 191.574 298.313 191.398C298.4 191.222 298.535 191.074 298.702 190.971C298.868 190.867 299.061 190.812 299.257 190.812H303.697C303.792 190.812 303.887 190.801 303.98 190.778C305.983 190.352 307.826 189.373 309.3 187.951C310.773 186.529 311.818 184.722 312.315 182.736C312.373 182.512 312.504 182.314 312.688 182.174C312.872 182.033 313.098 181.959 313.329 181.962H317.08C317.36 181.962 317.628 181.851 317.825 181.654C318.022 181.457 318.133 181.189 318.133 180.91V180.278C318.133 179.999 318.022 179.731 317.825 179.534C317.628 179.336 317.36 179.225 317.08 179.225H313.475C313.234 179.228 312.999 179.147 312.811 178.995C312.623 178.843 312.494 178.63 312.447 178.394C312.07 176.279 311.049 174.333 309.524 172.821C309.402 172.698 309.269 172.589 309.142 172.474H317.08C317.36 172.474 317.628 172.363 317.825 172.165C318.022 171.968 318.133 171.7 318.133 171.421V170.79Z" fill="#90BAE7"/>
</svg>
