<svg width="14" height="14" viewBox="0 0 14 14" fill="none" xmlns="http://www.w3.org/2000/svg">
<path fill-rule="evenodd" clip-rule="evenodd" d="M5.93585 11.8871C7.25693 11.8871 8.49222 11.4405 9.48732 10.7018L12.1724 13.3902C12.5086 13.7269 13.0542 13.7269 13.3905 13.3902C13.7267 13.0535 13.726 12.5079 13.3889 12.1721L10.7055 9.49939C11.4432 8.50307 11.8893 7.28344 11.8893 5.94356C11.8893 2.66258 9.22997 0 5.953 0C2.67604 0 -0.000427246 2.67975 -0.000427246 5.94356C-0.000427246 9.20736 2.67604 11.8871 5.93585 11.8871ZM6.03707 1.75C8.4074 1.75 10.3246 3.60849 10.3246 5.90625C10.3246 8.20401 8.4074 10.0625 6.03707 10.0625C3.66675 10.0625 1.74957 8.20401 1.74957 5.90625C1.74957 3.60849 3.68418 1.75 6.03707 1.75Z" fill="#69788C"/>
</svg>
