<svg width="497" height="434" fill="none" xmlns="http://www.w3.org/2000/svg"><path d="M322.427 432.556c15.913-4.974 30.191-10.055 47.367-19.7 17.715-9.948 96.409-57.29 106.642-139.225a156.28 156.28 0 0 0-6.521-66.739c-3.164-9.272-9.725-27.896-26.284-46.314-20.271-22.559-43.401-31.303-56.964-36.248a164.414 164.414 0 0 0-63.868-9.488c-12.3.402-34.01 1.303-58.688 12.083-16.099 7.03-26.107 15.05-40.855 27.034-23.365 19.006-26.44 26.917-67.315 66.161-11.222 10.771-20.447 19.26-34.529 27.622-9.763 5.797-17.656 9.038-32.218 14.952-35.792 14.54-45.983 17.484-57.695 25.67-22.778 15.931-21.302 33.304-22.282 37.044a73.552 73.552 0 0 0-1.733 29.345c2.987 19.652 13.572 32.498 20.143 40.273a110.747 110.747 0 0 0 32.218 25.888 205.866 205.866 0 0 0 26.401 11.643l236.181-.001z" fill="#90BAE7"/><path d="m372.949 418.667-.48-.854c23.404-13.147 100.568-62.435 110.831-144.656a162.758 162.758 0 0 0-6.771-69.296c-2.915-8.55-9.743-28.572-27.27-48.072-21.466-23.882-45.972-32.819-59.138-37.621a170.534 170.534 0 0 0-66.342-9.858c-12.168.395-34.814 1.132-60.953 12.544l-.392-.897c26.311-11.488 49.951-12.257 61.312-12.626a171.383 171.383 0 0 1 66.71 9.918c13.246 4.83 37.902 13.821 59.532 37.886 17.661 19.649 24.534 39.803 27.469 48.41a163.82 163.82 0 0 1 6.815 69.733c-10.32 82.677-87.817 132.185-111.323 145.389z" fill="#D5EFC8"/><path d="m86.477 93.335 7.657 40.32 15.627 5.815 15.624-5.815 7.657-40.32H86.477z" fill="#FFBA55"/><path d="M150.905 76.93a7.565 7.565 0 0 0-8.19-1.49 6.045 6.045 0 0 0-3.143 3.64c-.062.22-.781 2.955.91 4.715.795.828 2.283 1.604 3.309 1.075a1.645 1.645 0 0 0 .91-1.324c-.005-.464-.335-.56-.497-1.158-.181-.674-.046-1.613.414-1.82.49-.22 1.346.389 1.737 1.076.729 1.28.085 3.263-1.02 4.384-1.79 1.816-4.733 1.312-5.956 1.103a11.782 11.782 0 0 1-6.839-4.191 10.84 10.84 0 0 1-2.647-4.853c-.31-1.76-.235-3.566.22-5.294.699-3.351 1.566-3.848 3.089-8.161 1.154-3.27 1.727-4.953 1.544-7.28a9.35 9.35 0 0 0-1.986-5.514 9.02 9.02 0 0 0-5.956-3.088 9.735 9.735 0 0 0-7.721 3.088l-2.758-3.126s3.309-1.23-1.489-9.502l.91-.703A38.062 38.062 0 0 0 77.678.443 38.07 38.07 0 0 0 50.76 11.592a38.061 38.061 0 0 0-11.15 26.915l-3.857 103.327h-1.327a2.984 2.984 0 0 0-2.984 2.978 2.978 2.978 0 0 0 2.984 2.978h1.105l-.464 12.426h-.641a2.98 2.98 0 0 0-2.757 4.119 2.976 2.976 0 0 0 2.757 1.837h.419l-9.662 258.885h-.575a3.752 3.752 0 0 0-3.75 3.75 3.749 3.749 0 0 0 3.75 3.75h41.364a3.748 3.748 0 0 0 3.75-3.75 3.751 3.751 0 0 0-3.75-3.75h-.905l-9.662-258.885h.42a2.986 2.986 0 0 0 2.984-2.978 2.978 2.978 0 0 0-2.985-2.978h-.642l-.463-12.426h1.105a2.98 2.98 0 0 0 2.757-4.119 2.976 2.976 0 0 0-2.757-1.837h-1.328L50.64 38.507a27.033 27.033 0 0 1 27.038-27.035 27.04 27.04 0 0 1 27.038 27.035l.91.703c-4.798 8.272-1.489 9.502-1.489 9.502l-2.758 3.126a9.731 9.731 0 0 0-7.72-3.088 9.024 9.024 0 0 0-5.957 3.088 9.35 9.35 0 0 0-1.986 5.515c-.183 2.326.39 4.009 1.545 7.279 1.522 4.313 2.39 4.81 3.088 8.161a12.36 12.36 0 0 1 .22 5.294 10.855 10.855 0 0 1-2.647 4.853 11.783 11.783 0 0 1-6.838 4.191c-1.224.21-4.167.713-5.957-1.103-1.105-1.12-1.749-3.103-1.02-4.384.391-.687 1.247-1.296 1.737-1.075.46.206.596 1.145.414 1.82-.161.598-.492.693-.496 1.157a1.647 1.647 0 0 0 .91 1.324c1.025.53 2.513-.247 3.309-1.075 1.69-1.76.97-4.495.91-4.715a6.057 6.057 0 0 0-3.144-3.64 7.564 7.564 0 0 0-8.19 1.49 8.092 8.092 0 0 0-2.482 5.376c-.166 4.658 4.253 7.821 5.46 8.685 4.254 3.045 8.952 3.175 12.41 3.226 9.253.137 17.464.19 25.286.17 7.822.02 16.033-.033 25.287-.17 3.457-.051 8.155-.181 12.409-3.226 1.207-.864 5.626-4.027 5.46-8.685a8.091 8.091 0 0 0-2.482-5.377z" fill="#616161"/><path d="m86.477 93.335 7.657 40.32 15.627 5.815 15.624-5.815 7.657-40.32H86.477zm2.22 1.838h20.144v41.993l-13.094-4.872-7.05-37.121zm35.076 37.121-13.093 4.872V95.173h20.143l-7.05 37.121z" fill="#6B3832"/><path d="M109.744 144.811a3.888 3.888 0 1 0 .001-7.775 3.888 3.888 0 0 0-.001 7.775z" fill="#6B3832"/><path d="m445.357 432.075.767-.461c-.216-.359-21.584-35.965-24.91-44.835l-.838.314c3.356 8.947 24.1 43.514 24.981 44.982z" fill="#8B9D36"/><path d="M428.037 368.109a38.397 38.397 0 0 0-2.066 6.922 64.634 64.634 0 0 0-1.055 7.018 63.332 63.332 0 0 0-.291 7.09c.013 2.414.258 4.821.729 7.188a37.898 37.898 0 0 0 2.07-6.921 63.436 63.436 0 0 0 1.051-7.019 64.57 64.57 0 0 0 .286-7.091 38.366 38.366 0 0 0-.724-7.187zm7.886 10.781a36.619 36.619 0 0 0-2.68 6.527 61.586 61.586 0 0 0-1.684 6.717 60.535 60.535 0 0 0-.929 6.863 36.244 36.244 0 0 0 .076 7.056 36.13 36.13 0 0 0 2.685-6.526 60.625 60.625 0 0 0 1.68-6.718c.436-2.269.745-4.561.924-6.864a36.632 36.632 0 0 0-.072-7.055zm4.345 12.552a31.129 31.129 0 0 0-2.281 6.066 51.726 51.726 0 0 0-1.277 6.21 50.802 50.802 0 0 0-.516 6.318 30.644 30.644 0 0 0 .498 6.463 30.694 30.694 0 0 0 2.286-6.066 50.676 50.676 0 0 0 1.272-6.21c.299-2.094.47-4.204.511-6.319a30.972 30.972 0 0 0-.493-6.462zm5.472 12.528a23.825 23.825 0 0 0-2.313 5.163 38.821 38.821 0 0 0-1.313 5.335 38.11 38.11 0 0 0-.557 5.466 23.569 23.569 0 0 0 .453 5.64 23.486 23.486 0 0 0 2.318-5.162 38.076 38.076 0 0 0 1.309-5.336c.313-1.807.497-3.633.552-5.466a23.777 23.777 0 0 0-.449-5.64zm4.829 7.831a21.412 21.412 0 0 0-2.443 4.533 36.934 36.934 0 0 0-1.535 4.702 42.023 42.023 0 0 0-.927 4.822 50.038 50.038 0 0 0-.254 2.462 18.38 18.38 0 0 1-.27 2.521 4.94 4.94 0 0 0 .594-.374l.482-.483a8.92 8.92 0 0 0 .843-1.055c.489-.717.923-1.471 1.296-2.255a25.168 25.168 0 0 0 1.701-4.756c.414-1.624.682-3.281.801-4.953a18.678 18.678 0 0 0-.288-5.164zm-27.221-19.329a30.804 30.804 0 0 0-5.44-4.717 50.38 50.38 0 0 0-6.013-3.585 49.572 49.572 0 0 0-6.446-2.728 30.444 30.444 0 0 0-7.025-1.586 30.48 30.48 0 0 0 5.437 4.722 49.539 49.539 0 0 0 6.016 3.579 50.344 50.344 0 0 0 6.449 2.723 30.85 30.85 0 0 0 7.022 1.592zm5.343 9.979a37.95 37.95 0 0 0-6.709-4.392 63.286 63.286 0 0 0-7.156-3.204 62.042 62.042 0 0 0-7.493-2.306 37.483 37.483 0 0 0-7.943-1.107 37.504 37.504 0 0 0 6.707 4.397 61.989 61.989 0 0 0 7.157 3.199 63.267 63.267 0 0 0 7.496 2.3c2.6.65 5.262 1.023 7.941 1.113zm6.29 11.092a32.366 32.366 0 0 0-6.048-4.24 53.162 53.162 0 0 0-6.51-3.059 52.222 52.222 0 0 0-6.858-2.164 32.021 32.021 0 0 0-7.323-.971 31.977 31.977 0 0 0 6.045 4.245 52.287 52.287 0 0 0 6.512 3.053 53.088 53.088 0 0 0 6.86 2.159c2.395.604 4.852.931 7.322.977zm4.971 8.537a24.292 24.292 0 0 0-5.312-3.498 38.763 38.763 0 0 0-5.691-2.288 38.153 38.153 0 0 0-5.978-1.372 24.026 24.026 0 0 0-6.361-.15 23.997 23.997 0 0 0 5.31 3.504 38.02 38.02 0 0 0 5.693 2.282 38.643 38.643 0 0 0 5.98 1.366c2.103.331 4.241.383 6.359.156z" fill="#8B9D36"/><path d="M443.875 429.741a31.89 31.89 0 0 0-5.838-4.436 52.5 52.5 0 0 0-6.343-3.272 51.619 51.619 0 0 0-6.724-2.391 31.577 31.577 0 0 0-7.233-1.216 31.552 31.552 0 0 0 5.836 4.442 51.423 51.423 0 0 0 6.345 3.266 52.388 52.388 0 0 0 6.727 2.385 31.889 31.889 0 0 0 7.23 1.222zm-22.264-41.517a22.434 22.434 0 0 0-.174-7.17 33.798 33.798 0 0 0-1.827-6.523 33.244 33.244 0 0 0-3.079-6.032 22.227 22.227 0 0 0-4.749-5.379 22.253 22.253 0 0 0 .166 7.173 33.23 33.23 0 0 0 1.835 6.519 33.787 33.787 0 0 0 3.088 6.03 22.465 22.465 0 0 0 4.74 5.382z" fill="#8B9D36"/><path d="m447.662 432.557.893-.016c-.039-2.442-1.1-60.036-12.622-78.277l-.756.478c11.389 18.03 12.475 77.219 12.485 77.815z" fill="#50661A"/><path d="M439.257 362.491a40.922 40.922 0 0 1-.268-8.062c.148-2.621.439-5.231.871-7.821a80.935 80.935 0 0 1 1.653-7.664c.668-2.549 1.51-5.001 2.41-7.613.255.648.448 1.319.577 2.004.144.672.25 1.352.315 2.037.14 1.343.201 2.693.182 4.043a51.975 51.975 0 0 1-.728 7.924 57.642 57.642 0 0 1-1.833 7.715 36.3 36.3 0 0 1-3.179 7.437zm-14.163-36.471a29.003 29.003 0 0 1 5.044 6.48 45.595 45.595 0 0 1 3.38 7.102 44.811 44.811 0 0 1 2.122 7.573c.54 2.699.69 5.461.442 8.202a28.637 28.637 0 0 1-5.051-6.477 44.713 44.713 0 0 1-3.373-7.105 45.563 45.563 0 0 1-2.114-7.576 28.954 28.954 0 0 1-.45-8.199zm-9.496 14.679a66.656 66.656 0 0 1 6.642 6.119c2.053 2.128 4.012 4.303 5.929 6.49l5.694 6.534c.955 1.07 1.92 2.124 2.94 3.123a13.443 13.443 0 0 0 3.475 2.625 6.026 6.026 0 0 1-2.378-.061 11.125 11.125 0 0 1-2.291-.72 22.106 22.106 0 0 1-4.081-2.34 40.067 40.067 0 0 1-6.722-6.218 52.93 52.93 0 0 1-5.341-7.296 37.991 37.991 0 0 1-3.867-8.256zm0 14.678a54.866 54.866 0 0 1 8.257 5.078 93.351 93.351 0 0 1 7.409 6.02 92.046 92.046 0 0 1 6.766 6.734 54.355 54.355 0 0 1 5.909 7.685 54.413 54.413 0 0 1-8.262-5.073 91.969 91.969 0 0 1-7.404-6.025 93.853 93.853 0 0 1-6.762-6.738 55.012 55.012 0 0 1-5.913-7.681zm.966 11.517a54.41 54.41 0 0 1 8.342 4.823 92.795 92.795 0 0 1 7.519 5.788 90.901 90.901 0 0 1 6.895 6.518 53.778 53.778 0 0 1 6.062 7.491 53.683 53.683 0 0 1-8.346-4.819 90.75 90.75 0 0 1-7.514-5.792 92.103 92.103 0 0 1-6.891-6.523 54.311 54.311 0 0 1-6.067-7.486zm.644 12.31a50.642 50.642 0 0 1 8.356 4.053 85.751 85.751 0 0 1 7.597 5.07 84.06 84.06 0 0 1 7.023 5.838 49.89 49.89 0 0 1 6.256 6.865 49.983 49.983 0 0 1-8.359-4.048 83.964 83.964 0 0 1-7.594-5.075 85.55 85.55 0 0 1-7.019-5.843 50.494 50.494 0 0 1-6.26-6.86zm-.644 8.931a56.18 56.18 0 0 1 8.743 4.439 96.059 96.059 0 0 1 7.976 5.448 94.098 94.098 0 0 1 7.395 6.214 55.467 55.467 0 0 1 6.621 7.233 55.621 55.621 0 0 1-8.746-4.434 93.988 93.988 0 0 1-7.973-5.454 95.529 95.529 0 0 1-7.391-6.218 56.139 56.139 0 0 1-6.625-7.228zm-2.253 8.368a73.442 73.442 0 0 1 9.139 5.071 140.833 140.833 0 0 1 8.445 5.87 174.233 174.233 0 0 1 8.035 6.356c2.649 2.176 5.151 4.442 7.892 6.686a22.11 22.11 0 0 1-5.118-1.493 50.209 50.209 0 0 1-4.751-2.287 78.203 78.203 0 0 1-8.733-5.682 90.267 90.267 0 0 1-7.933-6.694 56.973 56.973 0 0 1-6.976-7.827zm-2.736 8.69a75.378 75.378 0 0 1 9.924 4.715 139.091 139.091 0 0 1 9.249 5.656 154.525 154.525 0 0 1 8.799 6.292 204.287 204.287 0 0 1 4.248 3.368 37.817 37.817 0 0 0 4.313 3.302 8.301 8.301 0 0 1-2.788-.479 32.94 32.94 0 0 1-2.634-.926c-1.72-.683-3.382-1.464-5.013-2.292a95.109 95.109 0 0 1-9.4-5.545 107.18 107.18 0 0 1-8.749-6.483 66.462 66.462 0 0 1-7.949-7.608zm30.456-32.479a44.518 44.518 0 0 1 1.282-8.605 75.044 75.044 0 0 1 2.474-8.17 73.725 73.725 0 0 1 3.376-7.84 43.918 43.918 0 0 1 4.578-7.4 43.986 43.986 0 0 1-1.277 8.607 73.607 73.607 0 0 1-2.48 8.168 74.858 74.858 0 0 1-3.381 7.838 44.456 44.456 0 0 1-4.572 7.402zm1.908 10.049a45.41 45.41 0 0 1 2.47-8.445 76.467 76.467 0 0 1 3.592-7.853 75.365 75.365 0 0 1 4.442-7.406 45.003 45.003 0 0 1 5.574-6.809 44.894 44.894 0 0 1-2.464 8.447 75.35 75.35 0 0 1-3.598 7.851 76.718 76.718 0 0 1-4.447 7.403 45.55 45.55 0 0 1-5.569 6.812zm1.443 9.717a49.798 49.798 0 0 1 3.616-8.478 84.099 84.099 0 0 1 4.667-7.767 82.862 82.862 0 0 1 5.462-7.231 49.255 49.255 0 0 1 6.523-6.513 49.148 49.148 0 0 1-3.61 8.481 82.851 82.851 0 0 1-4.672 7.765 84.528 84.528 0 0 1-5.467 7.226 49.802 49.802 0 0 1-6.519 6.517zm1.058 10.721a64.134 64.134 0 0 1 5.177-9.099 106.966 106.966 0 0 1 6.159-8.297 109.706 109.706 0 0 1 6.901-7.688 63.207 63.207 0 0 1 7.894-6.878 63.15 63.15 0 0 1-5.172 9.102 105.803 105.803 0 0 1-6.163 8.293 112.46 112.46 0 0 1-6.907 7.684 64.072 64.072 0 0 1-7.889 6.883zm.859 11.116a64.79 64.79 0 0 1 6.13-8.552 107.731 107.731 0 0 1 7.024-7.653 110.77 110.77 0 0 1 7.7-6.972 63.833 63.833 0 0 1 8.602-6.062 63.934 63.934 0 0 1-6.125 8.557 107.02 107.02 0 0 1-7.028 7.648 113.72 113.72 0 0 1-7.705 6.967 64.749 64.749 0 0 1-8.598 6.067zm.523 7.129a56.441 56.441 0 0 1 6.66-7.231 96.41 96.41 0 0 1 7.424-6.218 94.24 94.24 0 0 1 8.004-5.453 55.882 55.882 0 0 1 8.777-4.432 55.836 55.836 0 0 1-6.657 7.235 94.556 94.556 0 0 1-7.428 6.214 96.173 96.173 0 0 1-8.008 5.448 56.599 56.599 0 0 1-8.772 4.437zm.286 5.954a59.822 59.822 0 0 1 7.781-6.469 99.467 99.467 0 0 1 8.41-5.367 102.376 102.376 0 0 1 8.888-4.535 59.142 59.142 0 0 1 9.523-3.423 59.094 59.094 0 0 1-7.778 6.474 98.557 98.557 0 0 1-8.413 5.362 104.687 104.687 0 0 1-8.891 4.529 59.784 59.784 0 0 1-9.52 3.429zm-.222 3.862a64.605 64.605 0 0 1 9.103-5.243 109.922 109.922 0 0 1 9.544-4.053 110.347 110.347 0 0 1 9.877-3.154 63.777 63.777 0 0 1 10.324-1.953 63.723 63.723 0 0 1-9.101 5.249 106.542 106.542 0 0 1-9.547 4.047 110.352 110.352 0 0 1-9.879 3.148 64.652 64.652 0 0 1-10.321 1.959z" fill="#50661A"/><path d="M449.45 430.954c.881-1.468 21.625-36.033 24.981-44.982l-.838-.313c-3.326 8.87-24.694 44.476-24.91 44.834l.767.461z" fill="#5E7C24"/><path d="M466.815 367.13a38.373 38.373 0 0 1 2.066 6.922c.48 2.318.832 4.661 1.055 7.018.23 2.356.327 4.723.291 7.09a37.797 37.797 0 0 1-.729 7.188 37.884 37.884 0 0 1-2.07-6.922 63.419 63.419 0 0 1-1.051-7.018 64.82 64.82 0 0 1-.286-7.091c.015-2.413.257-4.82.724-7.187zm-7.886 10.781a36.619 36.619 0 0 1 2.68 6.527 61.528 61.528 0 0 1 1.684 6.717c.441 2.268.751 4.56.93 6.863a36.244 36.244 0 0 1-.077 7.056 36.13 36.13 0 0 1-2.685-6.526 60.416 60.416 0 0 1-1.679-6.719 61.446 61.446 0 0 1-.925-6.863 36.63 36.63 0 0 1 .072-7.055zm-4.345 12.552a31.065 31.065 0 0 1 2.281 6.066 51.532 51.532 0 0 1 1.277 6.21c.304 2.093.476 4.203.516 6.318a30.71 30.71 0 0 1-.497 6.463 30.721 30.721 0 0 1-2.287-6.066 50.672 50.672 0 0 1-1.271-6.21 51.607 51.607 0 0 1-.512-6.319 31.04 31.04 0 0 1 .493-6.462zm-5.472 12.528a23.825 23.825 0 0 1 2.313 5.163 38.677 38.677 0 0 1 1.313 5.335 38.11 38.11 0 0 1 .557 5.466 23.467 23.467 0 0 1-.453 5.64 23.533 23.533 0 0 1-2.318-5.162 38.216 38.216 0 0 1-1.309-5.336 38.847 38.847 0 0 1-.552-5.466 23.83 23.83 0 0 1 .449-5.64zm-4.828 7.831a21.43 21.43 0 0 1 2.442 4.533 36.934 36.934 0 0 1 1.535 4.702c.403 1.588.712 3.198.928 4.822.1.819.192 1.633.253 2.462.032.846.122 1.688.27 2.521a5.02 5.02 0 0 1-.594-.374l-.482-.483a8.92 8.92 0 0 1-.843-1.055 16.967 16.967 0 0 1-1.296-2.255 25.168 25.168 0 0 1-1.701-4.756 28.145 28.145 0 0 1-.8-4.953 18.601 18.601 0 0 1 .288-5.164zm27.221-19.33a30.797 30.797 0 0 1 5.439-4.716 50.38 50.38 0 0 1 6.013-3.585 49.572 49.572 0 0 1 6.446-2.728 30.444 30.444 0 0 1 7.025-1.586 30.434 30.434 0 0 1-5.437 4.721 49.482 49.482 0 0 1-6.015 3.58 50.405 50.405 0 0 1-6.449 2.723 30.82 30.82 0 0 1-7.022 1.591zm-5.344 9.979a37.972 37.972 0 0 1 6.71-4.391 63.192 63.192 0 0 1 7.155-3.204 62.042 62.042 0 0 1 7.493-2.306 37.501 37.501 0 0 1 7.943-1.107 37.532 37.532 0 0 1-6.706 4.397 62.251 62.251 0 0 1-7.158 3.199 63.252 63.252 0 0 1-7.495 2.3 37.955 37.955 0 0 1-7.942 1.112zm-6.289 11.092a32.295 32.295 0 0 1 6.048-4.239 53.148 53.148 0 0 1 6.509-3.059 52.27 52.27 0 0 1 6.858-2.164 31.974 31.974 0 0 1 7.324-.971 32.016 32.016 0 0 1-6.046 4.245 52.287 52.287 0 0 1-6.512 3.053 53.244 53.244 0 0 1-6.86 2.159 32.353 32.353 0 0 1-7.321.976zm-4.971 8.538a24.245 24.245 0 0 1 5.312-3.498 38.706 38.706 0 0 1 5.69-2.288 38.041 38.041 0 0 1 5.978-1.372 24.027 24.027 0 0 1 6.361-.15 23.974 23.974 0 0 1-5.31 3.504 37.977 37.977 0 0 1-5.693 2.282 38.631 38.631 0 0 1-5.979 1.366 24.268 24.268 0 0 1-6.359.156z" fill="#5E7C24"/><path d="M450.977 428.762a31.863 31.863 0 0 1 5.839-4.436 52.27 52.27 0 0 1 6.342-3.272 51.326 51.326 0 0 1 6.724-2.391 31.577 31.577 0 0 1 7.233-1.216 31.595 31.595 0 0 1-5.836 4.442 51.561 51.561 0 0 1-6.345 3.266 52.335 52.335 0 0 1-6.727 2.385 31.889 31.889 0 0 1-7.23 1.222zm22.264-41.517a22.434 22.434 0 0 1 .174-7.17 33.798 33.798 0 0 1 1.827-6.523 33.244 33.244 0 0 1 3.079-6.032 22.248 22.248 0 0 1 4.749-5.379 22.196 22.196 0 0 1-.166 7.173 33.23 33.23 0 0 1-1.835 6.519 33.817 33.817 0 0 1-3.087 6.03 22.49 22.49 0 0 1-4.741 5.382z" fill="#5E7C24"/><path d="m51.643 432.075-.767-.461c.216-.359 21.584-35.965 24.91-44.835l.838.314c-3.356 8.947-24.1 43.514-24.981 44.982z" fill="#8B9D36"/><path d="M68.963 368.109a38.396 38.396 0 0 1 2.066 6.922c.48 2.318.832 4.661 1.055 7.018.23 2.356.326 4.723.29 7.09a37.887 37.887 0 0 1-.728 7.188 37.93 37.93 0 0 1-2.07-6.921 63.53 63.53 0 0 1-1.051-7.019 64.72 64.72 0 0 1-.286-7.091c.015-2.413.257-4.82.724-7.187zm-7.886 10.781a36.612 36.612 0 0 1 2.68 6.527 61.517 61.517 0 0 1 1.684 6.717c.44 2.268.75 4.56.93 6.863a36.229 36.229 0 0 1-.078 7.056 36.201 36.201 0 0 1-2.685-6.526 60.555 60.555 0 0 1-1.679-6.718 61.682 61.682 0 0 1-.924-6.864 36.672 36.672 0 0 1 .072-7.055zm-4.346 12.552a31.08 31.08 0 0 1 2.282 6.066 51.646 51.646 0 0 1 1.276 6.21c.304 2.093.477 4.203.517 6.318a30.69 30.69 0 0 1-.498 6.463 30.676 30.676 0 0 1-2.286-6.066 50.638 50.638 0 0 1-1.272-6.21c-.3-2.094-.47-4.204-.511-6.319a31.053 31.053 0 0 1 .492-6.462zM51.26 403.97a23.797 23.797 0 0 1 2.314 5.163 38.779 38.779 0 0 1 1.313 5.335c.317 1.806.503 3.633.557 5.466a23.522 23.522 0 0 1-.453 5.64 23.497 23.497 0 0 1-2.318-5.162 38.131 38.131 0 0 1-1.31-5.336 38.817 38.817 0 0 1-.55-5.466 23.798 23.798 0 0 1 .447-5.64zm-4.828 7.831a21.436 21.436 0 0 1 2.443 4.533 36.92 36.92 0 0 1 1.535 4.702c.402 1.588.712 3.198.927 4.822.1.819.193 1.633.254 2.462.032.846.122 1.688.27 2.521a4.96 4.96 0 0 1-.594-.374l-.482-.483a8.89 8.89 0 0 1-.843-1.055 16.86 16.86 0 0 1-1.296-2.255 25.119 25.119 0 0 1-1.701-4.756 28.15 28.15 0 0 1-.8-4.953 18.64 18.64 0 0 1 .287-5.164zm27.221-19.329a30.773 30.773 0 0 1 5.44-4.717 50.366 50.366 0 0 1 6.013-3.585 49.538 49.538 0 0 1 6.446-2.728 30.436 30.436 0 0 1 7.025-1.586 30.488 30.488 0 0 1-5.437 4.722 49.626 49.626 0 0 1-6.016 3.579 50.394 50.394 0 0 1-6.449 2.723 30.857 30.857 0 0 1-7.022 1.592zm-5.343 9.979a37.945 37.945 0 0 1 6.71-4.392 63.223 63.223 0 0 1 7.155-3.204 62.03 62.03 0 0 1 7.493-2.306 37.491 37.491 0 0 1 7.943-1.107 37.527 37.527 0 0 1-6.707 4.397 62.005 62.005 0 0 1-7.157 3.199 63.243 63.243 0 0 1-7.496 2.3 38.01 38.01 0 0 1-7.941 1.113zm-6.29 11.092a32.342 32.342 0 0 1 6.048-4.24 53.145 53.145 0 0 1 6.51-3.059 52.248 52.248 0 0 1 6.858-2.164 32.026 32.026 0 0 1 7.323-.971 31.988 31.988 0 0 1-6.045 4.245 52.262 52.262 0 0 1-6.512 3.053 53.122 53.122 0 0 1-6.86 2.159 32.41 32.41 0 0 1-7.322.977zm-4.97 8.537a24.265 24.265 0 0 1 5.311-3.498 38.72 38.72 0 0 1 5.691-2.288 38.133 38.133 0 0 1 5.978-1.372 24.023 24.023 0 0 1 6.36-.15 23.972 23.972 0 0 1-5.31 3.504 37.985 37.985 0 0 1-5.692 2.282 38.63 38.63 0 0 1-5.98 1.366 24.266 24.266 0 0 1-6.359.156z" fill="#8B9D36"/><path d="M53.124 429.741a31.895 31.895 0 0 1 5.84-4.436 52.428 52.428 0 0 1 6.342-3.272 51.636 51.636 0 0 1 6.724-2.391 31.57 31.57 0 0 1 7.233-1.216 31.533 31.533 0 0 1-5.836 4.442 51.404 51.404 0 0 1-6.346 3.266 52.346 52.346 0 0 1-6.726 2.385 31.895 31.895 0 0 1-7.23 1.222zm22.265-41.517a22.452 22.452 0 0 1 .174-7.17 33.784 33.784 0 0 1 1.827-6.523 33.25 33.25 0 0 1 3.079-6.032 22.234 22.234 0 0 1 4.749-5.379 22.216 22.216 0 0 1-.166 7.173 33.245 33.245 0 0 1-1.835 6.519 33.785 33.785 0 0 1-3.088 6.03 22.474 22.474 0 0 1-4.74 5.382z" fill="#8B9D36"/><path d="m49.338 432.557-.893-.016c.04-2.442 1.1-60.036 12.622-78.277l.756.478c-11.389 18.03-12.475 77.219-12.485 77.815z" fill="#50661A"/><path d="M57.743 362.491a40.96 40.96 0 0 0 .268-8.062 72.511 72.511 0 0 0-.871-7.821 80.41 80.41 0 0 0-1.654-7.664c-.667-2.549-1.51-5.001-2.41-7.613a11.144 11.144 0 0 0-.576 2.004c-.144.672-.25 1.352-.315 2.037-.14 1.343-.2 2.693-.182 4.043.04 2.656.283 5.305.728 7.924a57.537 57.537 0 0 0 1.833 7.715 36.271 36.271 0 0 0 3.18 7.437zm14.163-36.471a28.988 28.988 0 0 0-5.044 6.48 45.525 45.525 0 0 0-3.38 7.102 44.755 44.755 0 0 0-2.122 7.573 28.655 28.655 0 0 0-.443 8.202 28.637 28.637 0 0 0 5.052-6.477 44.675 44.675 0 0 0 3.373-7.105 45.553 45.553 0 0 0 2.114-7.576 28.95 28.95 0 0 0 .45-8.199zm9.496 14.679a66.724 66.724 0 0 0-6.642 6.119c-2.053 2.128-4.012 4.303-5.929 6.49l-5.694 6.534c-.955 1.07-1.92 2.124-2.94 3.123a13.43 13.43 0 0 1-3.475 2.625 6.027 6.027 0 0 0 2.378-.061 11.145 11.145 0 0 0 2.291-.72 22.126 22.126 0 0 0 4.08-2.34 40.047 40.047 0 0 0 6.723-6.218 52.99 52.99 0 0 0 5.341-7.296 37.98 37.98 0 0 0 3.867-8.256zm0 14.678a54.916 54.916 0 0 0-8.257 5.078 93.357 93.357 0 0 0-7.409 6.02 91.793 91.793 0 0 0-6.766 6.734 54.288 54.288 0 0 0-5.909 7.685 54.44 54.44 0 0 0 8.262-5.073 92.008 92.008 0 0 0 7.404-6.025 93.747 93.747 0 0 0 6.762-6.738 54.974 54.974 0 0 0 5.913-7.681zm-.966 11.517a54.43 54.43 0 0 0-8.342 4.823 92.756 92.756 0 0 0-7.519 5.788 90.88 90.88 0 0 0-6.895 6.518 53.805 53.805 0 0 0-6.063 7.491 53.655 53.655 0 0 0 8.347-4.819 90.772 90.772 0 0 0 7.514-5.792 92.434 92.434 0 0 0 6.891-6.523 54.338 54.338 0 0 0 6.067-7.486zm-.644 12.31a50.613 50.613 0 0 0-8.356 4.053 85.683 85.683 0 0 0-7.597 5.07 83.993 83.993 0 0 0-7.023 5.838 49.926 49.926 0 0 0-6.256 6.865 49.976 49.976 0 0 0 8.36-4.048 84.13 84.13 0 0 0 7.593-5.075 85.566 85.566 0 0 0 7.019-5.843 50.55 50.55 0 0 0 6.26-6.86zm.644 8.931a56.153 56.153 0 0 0-8.743 4.439 95.822 95.822 0 0 0-7.976 5.448 94.125 94.125 0 0 0-7.395 6.214 55.507 55.507 0 0 0-6.621 7.233 55.611 55.611 0 0 0 8.746-4.434 93.85 93.85 0 0 0 7.973-5.454 95.689 95.689 0 0 0 7.391-6.218 56.201 56.201 0 0 0 6.625-7.228zm2.253 8.368a73.404 73.404 0 0 0-9.139 5.071 140.655 140.655 0 0 0-8.445 5.87 174.724 174.724 0 0 0-8.036 6.356c-2.648 2.176-5.15 4.442-7.89 6.686a22.096 22.096 0 0 0 5.116-1.493 50.292 50.292 0 0 0 4.752-2.287 78.168 78.168 0 0 0 8.733-5.682 90.048 90.048 0 0 0 7.933-6.694 56.99 56.99 0 0 0 6.976-7.827zm2.736 8.69a75.346 75.346 0 0 0-9.924 4.715 139.083 139.083 0 0 0-9.25 5.656 154.874 154.874 0 0 0-8.798 6.292 205.904 205.904 0 0 0-4.248 3.368 37.802 37.802 0 0 1-4.313 3.302 8.302 8.302 0 0 0 2.788-.479c.898-.266 1.77-.589 2.633-.926 1.721-.683 3.383-1.464 5.014-2.292a95.096 95.096 0 0 0 9.4-5.545 107.15 107.15 0 0 0 8.75-6.483 66.505 66.505 0 0 0 7.948-7.608zM54.97 372.714a44.48 44.48 0 0 0-1.283-8.605 74.755 74.755 0 0 0-2.473-8.17 73.62 73.62 0 0 0-3.376-7.84 43.976 43.976 0 0 0-4.578-7.4 44 44 0 0 0 1.277 8.607 73.542 73.542 0 0 0 2.48 8.168 74.796 74.796 0 0 0 3.38 7.838 44.465 44.465 0 0 0 4.573 7.402zm-1.908 10.049a45.464 45.464 0 0 0-2.47-8.445A76.553 76.553 0 0 0 47 366.465a75.246 75.246 0 0 0-4.442-7.406 44.989 44.989 0 0 0-5.574-6.809 44.94 44.94 0 0 0 2.464 8.447 75.307 75.307 0 0 0 3.598 7.851 76.637 76.637 0 0 0 4.447 7.403 45.54 45.54 0 0 0 5.57 6.812zm-1.444 9.717a49.772 49.772 0 0 0-3.615-8.478 84.228 84.228 0 0 0-4.667-7.767 82.926 82.926 0 0 0-5.462-7.231 49.222 49.222 0 0 0-6.524-6.513 49.176 49.176 0 0 0 3.611 8.481 82.72 82.72 0 0 0 4.672 7.765 84.26 84.26 0 0 0 5.467 7.226 49.796 49.796 0 0 0 6.519 6.517zm-1.057 10.721a64.189 64.189 0 0 0-5.177-9.099 106.99 106.99 0 0 0-6.159-8.297 109.717 109.717 0 0 0-6.901-7.688 63.165 63.165 0 0 0-7.894-6.878 63.185 63.185 0 0 0 5.172 9.102 105.856 105.856 0 0 0 6.163 8.293 112.507 112.507 0 0 0 6.907 7.684 64.124 64.124 0 0 0 7.889 6.883zm-.86 11.116a64.826 64.826 0 0 0-6.129-8.552 107.78 107.78 0 0 0-7.024-7.653 110.86 110.86 0 0 0-7.7-6.972 63.792 63.792 0 0 0-8.602-6.062 63.85 63.85 0 0 0 6.125 8.557 106.903 106.903 0 0 0 7.028 7.648 113.731 113.731 0 0 0 7.704 6.967 64.818 64.818 0 0 0 8.599 6.067zm-.522 7.129a56.499 56.499 0 0 0-6.66-7.231 96.288 96.288 0 0 0-7.425-6.218 94.173 94.173 0 0 0-8.003-5.453 55.85 55.85 0 0 0-8.777-4.432 55.818 55.818 0 0 0 6.657 7.235 94.525 94.525 0 0 0 7.428 6.214 96.2 96.2 0 0 0 8.008 5.448 56.574 56.574 0 0 0 8.772 4.437zm-.286 5.954a59.852 59.852 0 0 0-7.78-6.469 99.543 99.543 0 0 0-8.411-5.367 102.335 102.335 0 0 0-8.888-4.535 59.157 59.157 0 0 0-9.523-3.423 59.081 59.081 0 0 0 7.778 6.474 98.514 98.514 0 0 0 8.413 5.362 104.661 104.661 0 0 0 8.89 4.529 59.802 59.802 0 0 0 9.52 3.429zm.222 3.862a64.623 64.623 0 0 0-9.103-5.243 110.053 110.053 0 0 0-9.544-4.053 110.337 110.337 0 0 0-9.877-3.154 63.756 63.756 0 0 0-10.324-1.953 63.61 63.61 0 0 0 9.101 5.249 106.564 106.564 0 0 0 9.546 4.047 110.356 110.356 0 0 0 9.88 3.148 64.644 64.644 0 0 0 10.321 1.959z" fill="#50661A"/><path d="M47.55 430.954c-.88-1.468-21.625-36.033-24.981-44.982l.838-.313c3.326 8.87 24.694 44.476 24.91 44.834l-.767.461z" fill="#5E7C24"/><path d="M30.184 367.13a38.38 38.38 0 0 0-2.065 6.922 64.685 64.685 0 0 0-1.055 7.018 63.403 63.403 0 0 0-.291 7.09c.013 2.414.257 4.821.729 7.188a37.916 37.916 0 0 0 2.07-6.922c.48-2.318.832-4.661 1.05-7.018a64.72 64.72 0 0 0 .287-7.091 38.35 38.35 0 0 0-.724-7.187zm7.887 10.781a36.62 36.62 0 0 0-2.68 6.527 61.436 61.436 0 0 0-1.684 6.717c-.44 2.268-.75 4.56-.93 6.863a36.229 36.229 0 0 0 .077 7.056 36.194 36.194 0 0 0 2.685-6.526 60.593 60.593 0 0 0 1.68-6.719c.436-2.268.745-4.56.924-6.863a36.671 36.671 0 0 0-.072-7.055zm4.345 12.552a31.08 31.08 0 0 0-2.281 6.066 51.627 51.627 0 0 0-1.277 6.21 50.764 50.764 0 0 0-.516 6.318 30.69 30.69 0 0 0 .497 6.463 30.7 30.7 0 0 0 2.287-6.066 50.637 50.637 0 0 0 1.271-6.21c.3-2.094.471-4.204.512-6.319a31.046 31.046 0 0 0-.493-6.462zm5.472 12.528a23.802 23.802 0 0 0-2.313 5.163 38.778 38.778 0 0 0-1.314 5.335 38.052 38.052 0 0 0-.556 5.466 23.517 23.517 0 0 0 .453 5.64 23.496 23.496 0 0 0 2.318-5.162 38.118 38.118 0 0 0 1.309-5.336c.313-1.807.497-3.633.552-5.466a23.803 23.803 0 0 0-.449-5.64zm4.828 7.831a21.412 21.412 0 0 0-2.442 4.533 36.92 36.92 0 0 0-1.535 4.702 42.219 42.219 0 0 0-.928 4.822c-.1.819-.192 1.633-.253 2.462a18.317 18.317 0 0 1-.27 2.521 4.96 4.96 0 0 0 .594-.374l.482-.483c.307-.33.589-.682.843-1.055a16.86 16.86 0 0 0 1.296-2.255 25.119 25.119 0 0 0 1.7-4.756c.414-1.624.682-3.282.801-4.953a18.64 18.64 0 0 0-.288-5.164zm-27.22-19.33a30.806 30.806 0 0 0-5.44-4.716 50.358 50.358 0 0 0-6.013-3.585 49.538 49.538 0 0 0-6.446-2.728 30.435 30.435 0 0 0-7.025-1.586 30.442 30.442 0 0 0 5.437 4.721 49.497 49.497 0 0 0 6.015 3.58 50.388 50.388 0 0 0 6.45 2.723 30.8 30.8 0 0 0 7.021 1.591zm5.343 9.979a37.992 37.992 0 0 0-6.71-4.391 63.223 63.223 0 0 0-7.155-3.204 62.027 62.027 0 0 0-7.493-2.306 37.492 37.492 0 0 0-7.943-1.107 37.528 37.528 0 0 0 6.706 4.397 62.18 62.18 0 0 0 7.158 3.199 63.243 63.243 0 0 0 7.495 2.3c2.6.65 5.263 1.023 7.942 1.112zm6.29 11.092a32.337 32.337 0 0 0-6.049-4.239 53.147 53.147 0 0 0-6.509-3.059 52.252 52.252 0 0 0-6.858-2.164 31.971 31.971 0 0 0-7.324-.971 31.985 31.985 0 0 0 6.046 4.245 52.267 52.267 0 0 0 6.512 3.053 53.28 53.28 0 0 0 6.86 2.159 32.35 32.35 0 0 0 7.321.976zm4.97 8.538a24.266 24.266 0 0 0-5.312-3.498 38.711 38.711 0 0 0-5.69-2.288 38.018 38.018 0 0 0-5.979-1.372 24.023 24.023 0 0 0-6.36-.15 23.975 23.975 0 0 0 5.31 3.504 37.984 37.984 0 0 0 5.693 2.282 38.63 38.63 0 0 0 5.98 1.366c2.103.331 4.24.383 6.358.156z" fill="#5E7C24"/><path d="M46.023 428.762a31.895 31.895 0 0 0-5.839-4.436 52.285 52.285 0 0 0-6.342-3.272 51.343 51.343 0 0 0-6.724-2.391 31.569 31.569 0 0 0-7.233-1.216 31.576 31.576 0 0 0 5.836 4.442 51.542 51.542 0 0 0 6.345 3.266 52.352 52.352 0 0 0 6.726 2.385 31.895 31.895 0 0 0 7.231 1.222zM23.76 387.245a22.452 22.452 0 0 0-.174-7.17 33.79 33.79 0 0 0-1.827-6.523 33.251 33.251 0 0 0-3.08-6.032 22.234 22.234 0 0 0-4.748-5.379 22.213 22.213 0 0 0 .166 7.173 33.252 33.252 0 0 0 1.835 6.519 33.818 33.818 0 0 0 3.087 6.03 22.477 22.477 0 0 0 4.741 5.382z" fill="#5E7C24"/><path d="M185.222 143.02c14.574 0 26.388-11.813 26.388-26.385 0-14.572-11.814-26.385-26.388-26.385-14.573 0-26.388 11.813-26.388 26.385 0 14.572 11.815 26.385 26.388 26.385z" fill="#F2F2F2"/><path d="M490.909 431.577H1.273v1.957H490.91v-1.957z" fill="#935B50"/><path d="m85.34 432.17 16.65-81.939h19.348L91.562 432.17H85.34zM400.368 350.231l17.956 81.939h-8.85l-29.114-81.939h20.008z" fill="#935B50"/><path d="M410.152 329.787H95.872c-5.647 0-10.224 4.577-10.224 10.222 0 5.646 4.577 10.222 10.223 10.222h314.281c5.647 0 10.224-4.576 10.224-10.222 0-5.645-4.577-10.222-10.224-10.222z" fill="#C38F86"/><path d="m222.851 404.227-1.404 13.993 24.303 11.878-37.323-.005.004-25.869 14.42.003zM267.613 404.234l-1.404 13.994 24.303 11.879-37.323-.007.005-25.868 14.419.002z" fill="#F9977A"/><path d="M294.259 431.379v-.086a3.535 3.535 0 0 0-1.944-3.156L267.09 415.42a1.181 1.181 0 0 0-1.473.344l-4.932 6.562a1.177 1.177 0 0 1-1.548.302l-5.787-3.473a1.186 1.186 0 0 0-1.187-.015 1.174 1.174 0 0 0-.598 1.025l-.002 11.207a1.186 1.186 0 0 0 .345.833 1.196 1.196 0 0 0 .833.345l40.339.007a1.182 1.182 0 0 0 1.179-1.178zm-44.763-.008v-.085a3.535 3.535 0 0 0-1.943-3.156l-25.226-12.717a1.181 1.181 0 0 0-1.472.344l-4.933 6.561a1.179 1.179 0 0 1-1.548.303l-5.787-3.474a1.184 1.184 0 0 0-1.187-.015 1.184 1.184 0 0 0-.597 1.025l-.002 11.207a1.181 1.181 0 0 0 .727 1.089c.143.059.296.089.451.089l40.338.007a1.181 1.181 0 0 0 1.089-.727c.059-.143.09-.296.09-.451z" fill="#F2F2F2"/><path d="M270.099 230.906s2.232 36.23 2.231 44.748l-.009 50.262c0 2.069-.102 4.135-.305 6.198l1.004 75.582a2.971 2.971 0 0 1-2.958 2.68 16.741 16.741 0 0 1-11.066 2.669 16.142 16.142 0 0 1-7.055-2.673c-.768-.349-2.972-1.429-2.972-2.972 0-.072.003-.144.008-.216l-2.878-63.812a63.13 63.13 0 0 0-1.169-17.513l-18.732-89.611 43.901-5.342z" fill="#002D69"/><path d="M214.235 410.765c-2.779-.576-6.404-1.694-7.255-2.544a2.99 2.99 0 0 1-.645-.964 2.983 2.983 0 0 1-.225-1.138l.009-51.837a135.043 135.043 0 0 1 3.402-30.101c.404-1.77.566-3.587.48-5.401-.634-13.348-2.998-71.887 3.66-82.534l42.575-3.136-30.384 174.471c-.244 1.428-6.492 4.246-11.617 3.184z" fill="#002D69"/><path d="m221.513 300.084.227-.358c-7.21-4.58-8.909-18.255-8.925-18.392l-.421.049c.016.14 1.737 14.013 9.119 18.701z" fill="#B02336"/><path d="M237.389 243.574c24.296.004 33.285-7.326 33.398-7.422l-.275-.323c-.144.12-14.875 12.092-57.867 5.172l-.068.419a156.762 156.762 0 0 0 24.812 2.154z" fill="#065082"/><path d="m254.459 241.904-12.236 71.968.419.071 12.236-71.968-.419-.071z" fill="#B02336"/><path d="m251.541 259.75.255-.34-3.196-2.409 2.38-14.405-.417-.071-2.422 14.661 3.4 2.564zM221.506 305.786l.239-.349c-5.83-3.992-8.914-11.849-8.945-11.928l-.396.153c.031.08 3.161 8.057 9.102 12.124zm38.465 55.291.227-.358c-7.211-4.581-8.91-18.256-8.926-18.393l-.421.049c.016.14 1.737 14.014 9.12 18.702zm-.008 5.701.24-.349c-5.833-3.994-8.915-11.849-8.946-11.928l-.396.154c.031.079 3.162 8.057 9.102 12.123z" fill="#B02336"/><path d="m259.516 106.842-.64 9.262a53.196 53.196 0 0 0 .57 11.241c.674 4.685-5.512 12.083-7.766 12.175v9.316c.578 6.419-3.651 11.621-8.109 12.217-5.115.683-11.407-4.579-11.067-12.217v-21.789s-7.835-1.443-3.299-9.175a33.304 33.304 0 0 0 4.639-14.844l8.454-6.39 17.218 10.204z" fill="#F9977A"/><path d="M197.966 195.486s-.955-19.655 6.044-34.202a20.505 20.505 0 0 1 8.744-9.151c4.39-2.368 11.923-6.507 19.75-8.588-.066 5.781 4.515 6.926 10.001 6.813 5.134-.106 8.944.021 9.175-5.375 12.152 2.73 18.137 7.57 20.224 11.982 4.15 8.77 4.774 27.158 4.774 27.158l-6.424 1.273s1.611 48.517.338 53.75c-6.28 1.43-12.819 6.28-20.623 6.972-14.582 1.294-27.934-3.248-38.183-4.782a272.374 272.374 0 0 0 6.267-46.369l-20.087.519z" fill="#007DFE"/><path d="M240.34 110.828a.57.57 0 0 1-.554-.426.574.574 0 0 1 .27-.644 7.442 7.442 0 0 1 6.629-.012.57.57 0 0 1 .244.77.574.574 0 0 1-.769.248c-.029-.013-2.965-1.483-5.537-.011a.573.573 0 0 1-.283.075zm11.341 0a.57.57 0 0 1-.529-.794.566.566 0 0 1 .244-.276 7.442 7.442 0 0 1 6.629-.012.591.591 0 0 1 .175.139.588.588 0 0 1 .134.417.56.56 0 0 1-.201.39.574.574 0 0 1-.631.072 6.393 6.393 0 0 0-5.538-.011.573.573 0 0 1-.283.075zm3.608 7.526a1.721 1.721 0 0 0 1.659-1.718 1.72 1.72 0 0 0-1.659-1.718 1.716 1.716 0 0 0-1.66 1.718 1.719 1.719 0 0 0 1.66 1.718zm-11.753-.103a1.721 1.721 0 0 0 1.659-1.719 1.719 1.719 0 0 0-1.659-1.718 1.722 1.722 0 0 0-1.66 1.718 1.72 1.72 0 0 0 1.66 1.719z" fill="#1E1D22"/><path d="M250.237 114.973a15.155 15.155 0 0 1 2.387 4.689c.28.865.389 1.776.319 2.682-.04.479-.227.933-.534 1.303a1.657 1.657 0 0 1-1.244.514c.406-.107.757-.363.983-.716.19-.349.283-.742.271-1.138a9.035 9.035 0 0 0-.442-2.455c-.481-1.634-1.146-3.227-1.74-4.879zm1.443 24.547s-6.186-.316-9.175-3.147c0 0 3.814 7.58 9.175 8.611v-5.464z" fill="#DD765E"/><path d="M264.052 104.059s-.103-4.226-7.526-6.082c-7.423-1.855-8.867-5.979-13.145-4.845a14.056 14.056 0 0 0-6.959 4.845s-13.437-2.055-6.925 19.383c0 0 4.863 5.667 5.378.615.516-5.051 1.65-13.71 4.433-15.978 2.784-2.267 7.114 0 8.764 1.237 1.649 1.237 11.959 8.556 12.99 7.938 1.031-.619 5.155-1.856 2.99-7.113z" fill="#1E1D22"/><path d="m232.504 143.545 10.001 6.813-5.001 6.873-10.865-11.763 5.865-1.923zM242.505 150.358l9.176-5.374 4.21 1.099-9.698 10.091-3.688-5.816z" fill="#002D69"/><path d="M226.64 145.468c1.907 1.872 3.8 3.756 5.649 5.681l2.786 2.877c.935.953 1.832 1.941 2.75 2.909l-.674.04c1.659-2.298 3.276-4.625 4.969-6.897l.42-.563.367.588 3.643 5.845-.661-.066c1.631-1.668 3.306-3.294 4.956-4.943a296.609 296.609 0 0 1 5.046-4.856 268.904 268.904 0 0 1-4.651 5.235c-1.583 1.715-3.141 3.452-4.742 5.148l-.367.389-.294-.455-3.734-5.787.786.025c-1.64 2.31-3.357 4.565-5.031 6.851l-.319.435-.356-.396c-.892-.992-1.806-1.964-2.682-2.972l-2.647-3.005a270.239 270.239 0 0 1-5.214-6.083z" fill="#002D69"/><path d="M242.505 150.358c1.956 7.502 3.509 15.105 4.889 22.735a324.705 324.705 0 0 1 3.278 23.038 212.855 212.855 0 0 1 1.204 23.246c.044 7.77-.782 15.52-2.461 23.106l.884-5.741c.265-1.914.338-3.854.516-5.777.215-1.921.201-3.86.267-5.791l.078-2.897c.027-.966-.027-1.933-.037-2.9-.035-7.732-.623-15.455-1.424-23.146-.727-7.703-1.839-15.367-3.045-23.013a396.435 396.435 0 0 0-1.954-11.449 407.577 407.577 0 0 0-2.195-11.411zm27.749 35.038c-.322-1.486-.559-2.981-.783-4.478-.232-1.496-.403-2.998-.574-4.5-.153-1.505-.303-3.009-.394-4.52-.098-1.51-.184-3.022-.182-4.543.323 1.486.559 2.982.783 4.479.232 1.495.404 2.997.574 4.5.151 1.504.302 3.009.392 4.52.098 1.51.184 3.022.184 4.542z" fill="#5E7C24"/><path d="M271.15 180.068h17.447l-13.769 26.025-17.259.473 13.581-26.498z" fill="#935B50"/><path d="M218.054 194.968v8.675l32.442-10.184s2.735-6.884 11.789-5.941l1.037 1.792s12.26.094 12.166 2.263l-.66.849s3.679.188.661 2.734c0 0 1.036 1.981-2.17 2.924-3.207.943-8.959 2.451-8.959 2.451a4.285 4.285 0 0 0 3.772.755 16.308 16.308 0 0 1 3.395-.755 1.441 1.441 0 0 1 .221 1.331 1.447 1.447 0 0 1-.975.932c-1.792.661-4.056 1.981-5.093 1.981s-10.846 1.509-10.846 1.509l-39.476 17.511a11.036 11.036 0 0 1-10.383-.762 11.046 11.046 0 0 1-5.133-9.056l-.462-18.632 18.674-.377z" fill="#F9977A"/><path d="M279.355 185.302a1.178 1.178 0 0 0 0-2.357 1.178 1.178 0 0 0-.808 1.998c.213.219.502.348.808.359z" fill="#6C7FD8"/><path d="M286.452 184.123s2.386 2.38-3.042 9.195a3.081 3.081 0 0 1-.849 2.498 1.873 1.873 0 0 1 0 2.311 2.24 2.24 0 0 1-.636 2.546s-.142 2.899-2.052 2.899h-3.712s-1.175-.891 0-1.556c0 0-2.794-.141-.672-2.121 0 0-1.274-1.415.636-2.829a1.757 1.757 0 0 1 .553-2.688 41.136 41.136 0 0 0 4.909-1.06l4.865-9.195z" fill="#F9977A"/><path d="M212.961 207.792a9.386 9.386 0 0 1 2.11-2.613 6.56 6.56 0 0 1 2.982-1.536 12.352 12.352 0 0 0-2.726 1.834c-.831.727-1.621 1.5-2.366 2.315zm61.867-15.37a32.74 32.74 0 0 1-3.678.196 32.274 32.274 0 0 1-3.678-.196 32.275 32.275 0 0 1 3.678-.197 32.531 32.531 0 0 1 3.678.197zm-11.506-3.112a5.313 5.313 0 0 1-1.462.196 5.238 5.238 0 0 1-1.462-.196c.476-.134.968-.2 1.462-.196.494-.003.986.063 1.462.196zm12.167 5.846a31.116 31.116 0 0 1-3.566.525c-1.197.116-2.4.161-3.602.135a30.833 30.833 0 0 1 3.566-.525 31.38 31.38 0 0 1 3.602-.135zm6.098-1.838a.94.94 0 0 1 .913-.475c.177.017.349.065.51.141.157.08.294.194.4.334-.359-.007-.642-.087-.931-.084a2.51 2.51 0 0 0-.892.084zm-5.462 3.748a25.81 25.81 0 0 1 3.181-.818 25.644 25.644 0 0 1 3.255-.432 25.413 25.413 0 0 1-3.181.818 26.035 26.035 0 0 1-3.255.432zm-.636 2.829c1.151-.421 2.334-.701 3.51-1.004l1.779-.39c.594-.126 1.194-.22 1.783-.374a8.783 8.783 0 0 1-1.708.667c-.583.181-1.175.324-1.763.479a28.531 28.531 0 0 1-3.601.622zm.672 2.121c.936-.318 1.89-.583 2.857-.791a70.672 70.672 0 0 1 2.907-.552c-.899.425-1.847.739-2.822.935a17.91 17.91 0 0 1-2.942.408z" fill="#DD765E"/><path d="M218.054 194.967c-.071-1.509-.036-3.015.024-4.52.054-1.506.186-3.006.336-4.505.171-1.497.371-2.993.669-4.474a20.364 20.364 0 0 1 1.257-4.353c-.145.743-.288 1.474-.376 2.219-.11.74-.204 1.483-.284 2.227l-.485 4.466c-.169 1.489-.321 2.98-.517 4.469-.186 1.491-.372 2.982-.624 4.471zm24.677-28.864a1.467 1.467 0 0 0 1.419-1.469 1.468 1.468 0 0 0-1.419-1.469 1.469 1.469 0 0 0 0 2.938zm1.763 11.28a1.473 1.473 0 0 0 1.419-1.469 1.468 1.468 0 0 0-1.419-1.469 1.467 1.467 0 0 0-1.419 1.469 1.468 1.468 0 0 0 1.419 1.469zm2.115 11.984a1.466 1.466 0 0 0 1.419-1.468 1.468 1.468 0 0 0-1.419-1.469 1.469 1.469 0 0 0 0 2.937zm2.115 26.437a1.466 1.466 0 0 0 1.419-1.468 1.468 1.468 0 0 0-1.419-1.469 1.469 1.469 0 0 0 0 2.937zm0 12.69a1.467 1.467 0 0 0 1.419-1.469 1.468 1.468 0 0 0-1.419-1.468 1.468 1.468 0 0 0-1.006 2.489c.265.274.625.435 1.006.448zm-1.41 10.927a1.466 1.466 0 0 0 1.419-1.468 1.468 1.468 0 0 0-1.419-1.469 1.469 1.469 0 0 0 0 2.937z" fill="#292E33"/><path d="M247.436 128.102s3.05 2.801 5.602.862l-5.602-.862z" fill="#DD2F22"/><path d="M241.673 126.045c1.405.294 2.87.03 4.084-.737.813-.5 1.73-.803 2.68-.885a5.742 5.742 0 0 1 1.504.079 4.89 4.89 0 0 1 1.556.545l-.755-.21c.241-.005.482-.007.723-.001l-.756.211a4.68 4.68 0 0 1 .81-.357 5.84 5.84 0 0 1 2.251-.271c.95.082 1.869.385 2.681.886a4.703 4.703 0 0 0 1.805.732 6.387 6.387 0 0 0 2.278.008 4.699 4.699 0 0 1-4.968 1.344 5.366 5.366 0 0 0-1.86-.223c-.281.024-.56.072-.833.143-.134.035-.261.085-.386.126-.09.035-.179.074-.265.119l-.757.21c-.241.006-.482.004-.723-.001l-.756-.21a2.625 2.625 0 0 0-.266-.118c-.125-.042-.251-.095-.386-.128a5.005 5.005 0 0 0-.833-.144 5.356 5.356 0 0 0-1.862.222 4.701 4.701 0 0 1-4.966-1.34z" fill="#1E1D22"/><path d="M417.332 207.644c43.508 0 78.779-35.266 78.779-78.769 0-43.503-35.271-78.77-78.779-78.77-43.509 0-78.779 35.267-78.779 78.77 0 43.503 35.27 78.769 78.779 78.769z" fill="#E5E5E5"/><path d="M433.821 189.203c10.408 0 18.846-8.437 18.846-18.844 0-10.407-8.438-18.844-18.846-18.844-10.409 0-18.846 8.437-18.846 18.844 0 10.407 8.437 18.844 18.846 18.844z" fill="#616161"/><path d="m429.472 179.791-.017-.001a1.752 1.752 0 0 1-1.254-.553l-6.245-6.69a1.738 1.738 0 0 1 2.542-2.371l4.999 5.355 13.67-14.077a1.752 1.752 0 0 1 1.222-.527c.229-.003.455.038.667.123a1.73 1.73 0 0 1 1.097 1.59 1.731 1.731 0 0 1-.491 1.236l-14.943 15.387a1.729 1.729 0 0 1-1.247.528z" fill="#F2F2F2"/><path d="M461.279 91.656h-87.186V96h87.186v-4.344zM461.7 102.201h-87.187v4.345H461.7v-4.345zM462.03 112.28h-87.187v4.345h87.187v-4.345zM462.03 122.807h-87.187v4.345h87.187v-4.345z" fill="#fff"/><path d="M405.038 96.93H297.701a4.886 4.886 0 0 0-4.886 4.885v68.878a4.885 4.885 0 0 0 4.886 4.885h107.337a4.886 4.886 0 0 0 4.886-4.885v-68.878a4.886 4.886 0 0 0-4.886-4.886z" fill="#002D69"/><path d="M365.443 102.522h-67.35v4.895h67.35v-4.895zM292.815 130.349h117.109v-18.846H292.815v18.846zM401.38 150.014h-27.895v4.895h27.895v-4.895zM387.432 162.63h-27.266v4.895h27.266v-4.895zM354.134 162.63h-15.581v4.895h15.581v-4.895zM368.458 150.014h-15.581v4.895h15.581v-4.895z" fill="#F2F2F2"/><path d="M306.385 169.59c9.433 0 9.449-14.658 0-14.658-9.432 0-9.448 14.658 0 14.658zm-108.252-71.8a1.054 1.054 0 0 0-1.053-1.053h-23.717a1.051 1.051 0 0 0-1.053 1.053v.631a1.051 1.051 0 0 0 1.053 1.053h8.706a7.812 7.812 0 0 1 7.424 5.415 1.034 1.034 0 0 1-.172.924 1.037 1.037 0 0 1-.844.412h-15.114a1.05 1.05 0 0 0-.744.309 1.05 1.05 0 0 0-.309.744v.632a1.05 1.05 0 0 0 1.053 1.052h14.865a1.065 1.065 0 0 1 1.054.983c.013.176-.019.353-.092.514a7.807 7.807 0 0 1-7.121 4.616h-7.337a1.054 1.054 0 0 0-1.053 1.053v1.319c0 .231.076.456.216.639l13.448 17.611a1.054 1.054 0 0 0 1.476.198l.502-.383a1.056 1.056 0 0 0 .379-1.107 1.068 1.068 0 0 0-.181-.369l-11.099-14.532a1.054 1.054 0 0 1 .837-1.692h4.44c.095 0 .19-.011.283-.034a10.939 10.939 0 0 0 8.335-8.042 1.03 1.03 0 0 1 1.014-.774h3.751a1.053 1.053 0 0 0 1.053-1.052v-.632a1.053 1.053 0 0 0-1.053-1.053h-3.605a1.036 1.036 0 0 1-1.028-.831 10.426 10.426 0 0 0-2.923-5.573c-.122-.123-.255-.231-.382-.347h7.938a1.052 1.052 0 0 0 1.053-1.053v-.632z" fill="#90BAE7"/></svg>