<svg width="135" height="23" viewBox="0 0 135 23" fill="none" xmlns="http://www.w3.org/2000/svg">
<path d="M0.68 18V1.2H8.36C9.896 1.2 11.216 1.448 12.32 1.944C13.44 2.44 14.304 3.16 14.912 4.104C15.52 5.032 15.824 6.136 15.824 7.416C15.824 8.68 15.52 9.776 14.912 10.704C14.304 11.632 13.44 12.352 12.32 12.864C11.216 13.36 9.896 13.608 8.36 13.608H3.32L5.432 11.544V18H0.68ZM5.432 12.048L3.32 9.864H8.072C9.064 9.864 9.8 9.648 10.28 9.216C10.776 8.784 11.024 8.184 11.024 7.416C11.024 6.632 10.776 6.024 10.28 5.592C9.8 5.16 9.064 4.944 8.072 4.944H3.32L5.432 2.76V12.048ZM25.7518 18V15.576L25.4398 14.976V10.512C25.4398 9.792 25.2158 9.24 24.7678 8.856C24.3358 8.456 23.6398 8.256 22.6797 8.256C22.0558 8.256 21.4238 8.36 20.7838 8.568C20.1438 8.76 19.5998 9.032 19.1518 9.384L17.6158 6.288C18.3518 5.808 19.2318 5.44 20.2558 5.184C21.2958 4.912 22.3278 4.776 23.3518 4.776C25.4638 4.776 27.0958 5.264 28.2478 6.24C29.4158 7.2 29.9998 8.712 29.9998 10.776V18H25.7518ZM21.9118 18.216C20.8718 18.216 19.9918 18.04 19.2718 17.688C18.5518 17.336 17.9998 16.856 17.6158 16.248C17.2478 15.64 17.0638 14.96 17.0638 14.208C17.0638 13.408 17.2638 12.72 17.6638 12.144C18.0798 11.552 18.7118 11.104 19.5598 10.8C20.4078 10.48 21.5038 10.32 22.8478 10.32H25.9198V12.696H23.4718C22.7358 12.696 22.2158 12.816 21.9118 13.056C21.6238 13.296 21.4798 13.616 21.4798 14.016C21.4798 14.416 21.6318 14.736 21.9358 14.976C22.2398 15.216 22.6558 15.336 23.1838 15.336C23.6798 15.336 24.1278 15.216 24.5278 14.976C24.9438 14.72 25.2478 14.336 25.4398 13.824L26.0638 15.504C25.8238 16.4 25.3518 17.08 24.6478 17.544C23.9598 17.992 23.0478 18.216 21.9118 18.216ZM34.8757 22.872C34.1877 22.872 33.4917 22.76 32.7877 22.536C32.0997 22.328 31.5397 22.048 31.1077 21.696L32.6917 18.504C32.9637 18.744 33.2757 18.928 33.6277 19.056C33.9957 19.2 34.3557 19.272 34.7077 19.272C35.2037 19.272 35.5957 19.16 35.8837 18.936C36.1717 18.712 36.4197 18.36 36.6277 17.88L37.2277 16.368L37.5877 15.912L42.0037 4.992H46.3477L40.7317 18.528C40.2837 19.648 39.7637 20.52 39.1717 21.144C38.5957 21.784 37.9477 22.232 37.2277 22.488C36.5237 22.744 35.7397 22.872 34.8757 22.872ZM36.6517 18.552L30.9157 4.992H35.5957L39.8197 15.504L36.6517 18.552Z" fill="#4200FF"/>
<path d="M0.68 18V1.2H8.36C9.896 1.2 11.216 1.448 12.32 1.944C13.44 2.44 14.304 3.16 14.912 4.104C15.52 5.032 15.824 6.136 15.824 7.416C15.824 8.68 15.52 9.776 14.912 10.704C14.304 11.632 13.44 12.352 12.32 12.864C11.216 13.36 9.896 13.608 8.36 13.608H3.32L5.432 11.544V18H0.68ZM5.432 12.048L3.32 9.864H8.072C9.064 9.864 9.8 9.648 10.28 9.216C10.776 8.784 11.024 8.184 11.024 7.416C11.024 6.632 10.776 6.024 10.28 5.592C9.8 5.16 9.064 4.944 8.072 4.944H3.32L5.432 2.76V12.048ZM25.7518 18V15.576L25.4398 14.976V10.512C25.4398 9.792 25.2158 9.24 24.7678 8.856C24.3358 8.456 23.6398 8.256 22.6797 8.256C22.0558 8.256 21.4238 8.36 20.7838 8.568C20.1438 8.76 19.5998 9.032 19.1518 9.384L17.6158 6.288C18.3518 5.808 19.2318 5.44 20.2558 5.184C21.2958 4.912 22.3278 4.776 23.3518 4.776C25.4638 4.776 27.0958 5.264 28.2478 6.24C29.4158 7.2 29.9998 8.712 29.9998 10.776V18H25.7518ZM21.9118 18.216C20.8718 18.216 19.9918 18.04 19.2718 17.688C18.5518 17.336 17.9998 16.856 17.6158 16.248C17.2478 15.64 17.0638 14.96 17.0638 14.208C17.0638 13.408 17.2638 12.72 17.6638 12.144C18.0798 11.552 18.7118 11.104 19.5598 10.8C20.4078 10.48 21.5038 10.32 22.8478 10.32H25.9198V12.696H23.4718C22.7358 12.696 22.2158 12.816 21.9118 13.056C21.6238 13.296 21.4798 13.616 21.4798 14.016C21.4798 14.416 21.6318 14.736 21.9358 14.976C22.2398 15.216 22.6558 15.336 23.1838 15.336C23.6798 15.336 24.1278 15.216 24.5278 14.976C24.9438 14.72 25.2478 14.336 25.4398 13.824L26.0638 15.504C25.8238 16.4 25.3518 17.08 24.6478 17.544C23.9598 17.992 23.0478 18.216 21.9118 18.216ZM34.8757 22.872C34.1877 22.872 33.4917 22.76 32.7877 22.536C32.0997 22.328 31.5397 22.048 31.1077 21.696L32.6917 18.504C32.9637 18.744 33.2757 18.928 33.6277 19.056C33.9957 19.2 34.3557 19.272 34.7077 19.272C35.2037 19.272 35.5957 19.16 35.8837 18.936C36.1717 18.712 36.4197 18.36 36.6277 17.88L37.2277 16.368L37.5877 15.912L42.0037 4.992H46.3477L40.7317 18.528C40.2837 19.648 39.7637 20.52 39.1717 21.144C38.5957 21.784 37.9477 22.232 37.2277 22.488C36.5237 22.744 35.7397 22.872 34.8757 22.872ZM36.6517 18.552L30.9157 4.992H35.5957L39.8197 15.504L36.6517 18.552Z" fill="#002D69"/>
<path d="M50.3825 9.336H59.2625V10.872H50.3825V9.336ZM50.5745 18H48.7985V1.2H60.3185V2.736H50.5745V18ZM63.3916 18V5.4H65.0236V8.832L64.8556 8.232C65.2076 7.272 65.7996 6.544 66.6316 6.048C67.4636 5.536 68.4956 5.28 69.7276 5.28V6.936C69.6636 6.936 69.5996 6.936 69.5356 6.936C69.4716 6.92 69.4076 6.912 69.3436 6.912C68.0156 6.912 66.9756 7.32 66.2236 8.136C65.4716 8.936 65.0956 10.08 65.0956 11.568V18H63.3916ZM72.8369 18V5.4H74.5409V18H72.8369ZM73.7009 2.616C73.3489 2.616 73.0529 2.496 72.8129 2.256C72.5729 2.016 72.4529 1.728 72.4529 1.392C72.4529 1.056 72.5729 0.775999 72.8129 0.551999C73.0529 0.311999 73.3489 0.191999 73.7009 0.191999C74.0529 0.191999 74.3489 0.303999 74.5889 0.527999C74.8289 0.751999 74.9489 1.032 74.9489 1.368C74.9489 1.72 74.8289 2.016 74.5889 2.256C74.3649 2.496 74.0689 2.616 73.7009 2.616ZM84.6343 18.12C83.3223 18.12 82.1703 17.848 81.1783 17.304C80.1863 16.744 79.4103 15.984 78.8503 15.024C78.2903 14.048 78.0103 12.936 78.0103 11.688C78.0103 10.44 78.2743 9.336 78.8023 8.376C79.3463 7.416 80.0823 6.664 81.0103 6.12C81.9543 5.56 83.0103 5.28 84.1783 5.28C85.3623 5.28 86.4103 5.552 87.3223 6.096C88.2503 6.624 88.9783 7.376 89.5063 8.352C90.0343 9.312 90.2983 10.424 90.2983 11.688C90.2983 11.768 90.2903 11.856 90.2743 11.952C90.2743 12.032 90.2743 12.12 90.2743 12.216H79.3063V10.944H89.3623L88.6903 11.448C88.6903 10.536 88.4903 9.728 88.0903 9.024C87.7063 8.304 87.1783 7.744 86.5063 7.344C85.8343 6.944 85.0583 6.744 84.1783 6.744C83.3143 6.744 82.5383 6.944 81.8503 7.344C81.1623 7.744 80.6263 8.304 80.2423 9.024C79.8583 9.744 79.6663 10.568 79.6663 11.496V11.76C79.6663 12.72 79.8743 13.568 80.2903 14.304C80.7223 15.024 81.3143 15.592 82.0663 16.008C82.8343 16.408 83.7063 16.608 84.6823 16.608C85.4503 16.608 86.1623 16.472 86.8183 16.2C87.4903 15.928 88.0663 15.512 88.5463 14.952L89.5063 16.056C88.9463 16.728 88.2423 17.24 87.3943 17.592C86.5623 17.944 85.6423 18.12 84.6343 18.12ZM100.199 5.28C101.223 5.28 102.119 5.48 102.887 5.88C103.671 6.264 104.279 6.856 104.711 7.656C105.159 8.456 105.383 9.464 105.383 10.68V18H103.679V10.848C103.679 9.52 103.343 8.52 102.671 7.848C102.015 7.16 101.087 6.816 99.8866 6.816C98.9906 6.816 98.2066 7 97.5346 7.368C96.8786 7.72 96.3666 8.24 95.9986 8.928C95.6466 9.6 95.4706 10.416 95.4706 11.376V18H93.7666V5.4H95.3986V8.856L95.1346 8.208C95.5346 7.296 96.1746 6.584 97.0546 6.072C97.9346 5.544 98.9826 5.28 100.199 5.28ZM115.001 18.12C113.801 18.12 112.721 17.848 111.761 17.304C110.817 16.76 110.073 16.008 109.529 15.048C108.985 14.072 108.713 12.952 108.713 11.688C108.713 10.408 108.985 9.288 109.529 8.328C110.073 7.368 110.817 6.624 111.761 6.096C112.721 5.552 113.801 5.28 115.001 5.28C116.105 5.28 117.089 5.528 117.953 6.024C118.833 6.52 119.529 7.248 120.041 8.208C120.569 9.152 120.833 10.312 120.833 11.688C120.833 13.048 120.577 14.208 120.065 15.168C119.553 16.128 118.857 16.864 117.977 17.376C117.113 17.872 116.121 18.12 115.001 18.12ZM115.121 16.608C116.017 16.608 116.817 16.408 117.521 16.008C118.241 15.592 118.801 15.016 119.201 14.28C119.617 13.528 119.825 12.664 119.825 11.688C119.825 10.696 119.617 9.832 119.201 9.096C118.801 8.36 118.241 7.792 117.521 7.392C116.817 6.976 116.017 6.768 115.121 6.768C114.241 6.768 113.449 6.976 112.745 7.392C112.041 7.792 111.481 8.36 111.065 9.096C110.649 9.832 110.441 10.696 110.441 11.688C110.441 12.664 110.649 13.528 111.065 14.28C111.481 15.016 112.041 15.592 112.745 16.008C113.449 16.408 114.241 16.608 115.121 16.608ZM119.873 18V14.208L120.041 11.664L119.801 9.12V0.191999H121.505V18H119.873ZM129.635 18.12C128.595 18.12 127.611 17.976 126.683 17.688C125.755 17.384 125.027 17.008 124.499 16.56L125.267 15.216C125.779 15.6 126.435 15.936 127.235 16.224C128.035 16.496 128.875 16.632 129.755 16.632C130.955 16.632 131.819 16.448 132.347 16.08C132.875 15.696 133.139 15.192 133.139 14.568C133.139 14.104 132.987 13.744 132.683 13.488C132.395 13.216 132.011 13.016 131.531 12.888C131.051 12.744 130.515 12.624 129.923 12.528C129.331 12.432 128.739 12.32 128.147 12.192C127.571 12.064 127.043 11.88 126.563 11.64C126.083 11.384 125.691 11.04 125.387 10.608C125.099 10.176 124.955 9.6 124.955 8.88C124.955 8.192 125.147 7.576 125.531 7.032C125.915 6.488 126.475 6.064 127.211 5.76C127.963 5.44 128.875 5.28 129.947 5.28C130.763 5.28 131.579 5.392 132.395 5.616C133.211 5.824 133.883 6.104 134.411 6.456L133.667 7.824C133.107 7.44 132.507 7.168 131.867 7.008C131.227 6.832 130.587 6.744 129.947 6.744C128.811 6.744 127.971 6.944 127.427 7.344C126.899 7.728 126.635 8.224 126.635 8.832C126.635 9.312 126.779 9.688 127.067 9.96C127.371 10.232 127.763 10.448 128.243 10.608C128.739 10.752 129.275 10.872 129.851 10.968C130.443 11.064 131.027 11.184 131.603 11.328C132.195 11.456 132.731 11.64 133.211 11.88C133.707 12.104 134.099 12.432 134.387 12.864C134.691 13.28 134.843 13.832 134.843 14.52C134.843 15.256 134.635 15.896 134.219 16.44C133.819 16.968 133.227 17.384 132.443 17.688C131.675 17.976 130.739 18.12 129.635 18.12Z" fill="#4200FF"/>
<path d="M50.3825 9.336H59.2625V10.872H50.3825V9.336ZM50.5745 18H48.7985V1.2H60.3185V2.736H50.5745V18ZM63.3916 18V5.4H65.0236V8.832L64.8556 8.232C65.2076 7.272 65.7996 6.544 66.6316 6.048C67.4636 5.536 68.4956 5.28 69.7276 5.28V6.936C69.6636 6.936 69.5996 6.936 69.5356 6.936C69.4716 6.92 69.4076 6.912 69.3436 6.912C68.0156 6.912 66.9756 7.32 66.2236 8.136C65.4716 8.936 65.0956 10.08 65.0956 11.568V18H63.3916ZM72.8369 18V5.4H74.5409V18H72.8369ZM73.7009 2.616C73.3489 2.616 73.0529 2.496 72.8129 2.256C72.5729 2.016 72.4529 1.728 72.4529 1.392C72.4529 1.056 72.5729 0.775999 72.8129 0.551999C73.0529 0.311999 73.3489 0.191999 73.7009 0.191999C74.0529 0.191999 74.3489 0.303999 74.5889 0.527999C74.8289 0.751999 74.9489 1.032 74.9489 1.368C74.9489 1.72 74.8289 2.016 74.5889 2.256C74.3649 2.496 74.0689 2.616 73.7009 2.616ZM84.6343 18.12C83.3223 18.12 82.1703 17.848 81.1783 17.304C80.1863 16.744 79.4103 15.984 78.8503 15.024C78.2903 14.048 78.0103 12.936 78.0103 11.688C78.0103 10.44 78.2743 9.336 78.8023 8.376C79.3463 7.416 80.0823 6.664 81.0103 6.12C81.9543 5.56 83.0103 5.28 84.1783 5.28C85.3623 5.28 86.4103 5.552 87.3223 6.096C88.2503 6.624 88.9783 7.376 89.5063 8.352C90.0343 9.312 90.2983 10.424 90.2983 11.688C90.2983 11.768 90.2903 11.856 90.2743 11.952C90.2743 12.032 90.2743 12.12 90.2743 12.216H79.3063V10.944H89.3623L88.6903 11.448C88.6903 10.536 88.4903 9.728 88.0903 9.024C87.7063 8.304 87.1783 7.744 86.5063 7.344C85.8343 6.944 85.0583 6.744 84.1783 6.744C83.3143 6.744 82.5383 6.944 81.8503 7.344C81.1623 7.744 80.6263 8.304 80.2423 9.024C79.8583 9.744 79.6663 10.568 79.6663 11.496V11.76C79.6663 12.72 79.8743 13.568 80.2903 14.304C80.7223 15.024 81.3143 15.592 82.0663 16.008C82.8343 16.408 83.7063 16.608 84.6823 16.608C85.4503 16.608 86.1623 16.472 86.8183 16.2C87.4903 15.928 88.0663 15.512 88.5463 14.952L89.5063 16.056C88.9463 16.728 88.2423 17.24 87.3943 17.592C86.5623 17.944 85.6423 18.12 84.6343 18.12ZM100.199 5.28C101.223 5.28 102.119 5.48 102.887 5.88C103.671 6.264 104.279 6.856 104.711 7.656C105.159 8.456 105.383 9.464 105.383 10.68V18H103.679V10.848C103.679 9.52 103.343 8.52 102.671 7.848C102.015 7.16 101.087 6.816 99.8866 6.816C98.9906 6.816 98.2066 7 97.5346 7.368C96.8786 7.72 96.3666 8.24 95.9986 8.928C95.6466 9.6 95.4706 10.416 95.4706 11.376V18H93.7666V5.4H95.3986V8.856L95.1346 8.208C95.5346 7.296 96.1746 6.584 97.0546 6.072C97.9346 5.544 98.9826 5.28 100.199 5.28ZM115.001 18.12C113.801 18.12 112.721 17.848 111.761 17.304C110.817 16.76 110.073 16.008 109.529 15.048C108.985 14.072 108.713 12.952 108.713 11.688C108.713 10.408 108.985 9.288 109.529 8.328C110.073 7.368 110.817 6.624 111.761 6.096C112.721 5.552 113.801 5.28 115.001 5.28C116.105 5.28 117.089 5.528 117.953 6.024C118.833 6.52 119.529 7.248 120.041 8.208C120.569 9.152 120.833 10.312 120.833 11.688C120.833 13.048 120.577 14.208 120.065 15.168C119.553 16.128 118.857 16.864 117.977 17.376C117.113 17.872 116.121 18.12 115.001 18.12ZM115.121 16.608C116.017 16.608 116.817 16.408 117.521 16.008C118.241 15.592 118.801 15.016 119.201 14.28C119.617 13.528 119.825 12.664 119.825 11.688C119.825 10.696 119.617 9.832 119.201 9.096C118.801 8.36 118.241 7.792 117.521 7.392C116.817 6.976 116.017 6.768 115.121 6.768C114.241 6.768 113.449 6.976 112.745 7.392C112.041 7.792 111.481 8.36 111.065 9.096C110.649 9.832 110.441 10.696 110.441 11.688C110.441 12.664 110.649 13.528 111.065 14.28C111.481 15.016 112.041 15.592 112.745 16.008C113.449 16.408 114.241 16.608 115.121 16.608ZM119.873 18V14.208L120.041 11.664L119.801 9.12V0.191999H121.505V18H119.873ZM129.635 18.12C128.595 18.12 127.611 17.976 126.683 17.688C125.755 17.384 125.027 17.008 124.499 16.56L125.267 15.216C125.779 15.6 126.435 15.936 127.235 16.224C128.035 16.496 128.875 16.632 129.755 16.632C130.955 16.632 131.819 16.448 132.347 16.08C132.875 15.696 133.139 15.192 133.139 14.568C133.139 14.104 132.987 13.744 132.683 13.488C132.395 13.216 132.011 13.016 131.531 12.888C131.051 12.744 130.515 12.624 129.923 12.528C129.331 12.432 128.739 12.32 128.147 12.192C127.571 12.064 127.043 11.88 126.563 11.64C126.083 11.384 125.691 11.04 125.387 10.608C125.099 10.176 124.955 9.6 124.955 8.88C124.955 8.192 125.147 7.576 125.531 7.032C125.915 6.488 126.475 6.064 127.211 5.76C127.963 5.44 128.875 5.28 129.947 5.28C130.763 5.28 131.579 5.392 132.395 5.616C133.211 5.824 133.883 6.104 134.411 6.456L133.667 7.824C133.107 7.44 132.507 7.168 131.867 7.008C131.227 6.832 130.587 6.744 129.947 6.744C128.811 6.744 127.971 6.944 127.427 7.344C126.899 7.728 126.635 8.224 126.635 8.832C126.635 9.312 126.779 9.688 127.067 9.96C127.371 10.232 127.763 10.448 128.243 10.608C128.739 10.752 129.275 10.872 129.851 10.968C130.443 11.064 131.027 11.184 131.603 11.328C132.195 11.456 132.731 11.64 133.211 11.88C133.707 12.104 134.099 12.432 134.387 12.864C134.691 13.28 134.843 13.832 134.843 14.52C134.843 15.256 134.635 15.896 134.219 16.44C133.819 16.968 133.227 17.384 132.443 17.688C131.675 17.976 130.739 18.12 129.635 18.12Z" fill="#2F82DD"/>
</svg>
