<svg width="22" height="22" viewBox="0 0 22 22" fill="none" xmlns="http://www.w3.org/2000/svg">
<path d="M14.71 7.29002C14.617 7.19629 14.5064 7.1219 14.3845 7.07113C14.2627 7.02036 14.132 6.99422 14 6.99422C13.8679 6.99422 13.7372 7.02036 13.6154 7.07113C13.4935 7.1219 13.3829 7.19629 13.29 7.29002L11 9.59002L8.70996 7.29002C8.52165 7.10171 8.26626 6.99593 7.99996 6.99593C7.73366 6.99593 7.47826 7.10171 7.28996 7.29002C7.10165 7.47832 6.99587 7.73372 6.99587 8.00002C6.99587 8.26632 7.10165 8.52171 7.28996 8.71002L9.58996 11L7.28996 13.29C7.19623 13.383 7.12183 13.4936 7.07107 13.6154C7.0203 13.7373 6.99416 13.868 6.99416 14C6.99416 14.132 7.0203 14.2627 7.07107 14.3846C7.12183 14.5065 7.19623 14.6171 7.28996 14.71C7.38292 14.8037 7.49352 14.8781 7.61538 14.9289C7.73724 14.9797 7.86795 15.0058 7.99996 15.0058C8.13197 15.0058 8.26267 14.9797 8.38453 14.9289C8.50639 14.8781 8.61699 14.8037 8.70996 14.71L11 12.41L13.29 14.71C13.3829 14.8037 13.4935 14.8781 13.6154 14.9289C13.7372 14.9797 13.8679 15.0058 14 15.0058C14.132 15.0058 14.2627 14.9797 14.3845 14.9289C14.5064 14.8781 14.617 14.8037 14.71 14.71C14.8037 14.6171 14.8781 14.5065 14.9288 14.3846C14.9796 14.2627 15.0058 14.132 15.0058 14C15.0058 13.868 14.9796 13.7373 14.9288 13.6154C14.8781 13.4936 14.8037 13.383 14.71 13.29L12.41 11L14.71 8.71002C14.8037 8.61705 14.8781 8.50645 14.9288 8.38459C14.9796 8.26274 15.0058 8.13203 15.0058 8.00002C15.0058 7.86801 14.9796 7.7373 14.9288 7.61544C14.8781 7.49358 14.8037 7.38298 14.71 7.29002ZM18.07 3.93002C17.1475 2.97492 16.044 2.21309 14.824 1.689C13.604 1.16491 12.2918 0.889052 10.964 0.877514C9.63618 0.865976 8.31938 1.11899 7.09042 1.6218C5.86145 2.12461 4.74493 2.86714 3.80601 3.80607C2.86708 4.745 2.12455 5.86151 1.62174 7.09048C1.11893 8.31944 0.865915 9.63624 0.877453 10.964C0.888991 12.2918 1.16485 13.604 1.68894 14.8241C2.21303 16.0441 2.97486 17.1476 3.92996 18.07C4.85243 19.0251 5.95587 19.7869 7.17591 20.311C8.39595 20.8351 9.70815 21.111 11.0359 21.1225C12.3637 21.1341 13.6805 20.881 14.9095 20.3782C16.1385 19.8754 17.255 19.1329 18.1939 18.194C19.1328 17.255 19.8754 16.1385 20.3782 14.9096C20.881 13.6806 21.134 12.3638 21.1225 11.036C21.1109 9.70821 20.8351 8.39601 20.311 7.17597C19.7869 5.95593 19.0251 4.85249 18.07 3.93002ZM16.66 16.66C15.352 17.9694 13.6305 18.7848 11.7888 18.9673C9.94701 19.1498 8.09896 18.6881 6.55948 17.6608C5.02 16.6335 3.88432 15.1042 3.34593 13.3335C2.80754 11.5628 2.89976 9.66016 3.60687 7.9498C4.31398 6.23945 5.59223 4.82717 7.22385 3.95358C8.85546 3.07999 10.7395 2.79915 12.555 3.15889C14.3704 3.51863 16.005 4.49671 17.1802 5.92648C18.3554 7.35625 18.9985 9.14926 19 11C19.0035 12.0513 18.7985 13.0929 18.3969 14.0644C17.9952 15.0359 17.4049 15.9182 16.66 16.66Z" fill="#333333"/>
</svg>
