<svg width="14" height="12" viewBox="0 0 14 12" fill="none" xmlns="http://www.w3.org/2000/svg">
<path fill-rule="evenodd" clip-rule="evenodd" d="M12.5792 4.42283V0.166626H11.4908V4.42283H10.9635C10.5033 4.42283 10.1302 4.79592 10.1302 5.25616V6.89987C10.1302 7.36011 10.5033 7.7332 10.9635 7.7332H11.4908V11.5952H12.5792V7.7332H13.1064C13.5666 7.7332 13.9397 7.36011 13.9397 6.89987V5.25616C13.9397 4.79592 13.5666 4.42283 13.1064 4.42283H12.5792ZM7.81728 0.166626H6.72885V1.90052H6.20164C5.7414 1.90052 5.3683 2.27361 5.3683 2.73385V4.37756C5.3683 4.8378 5.7414 5.2109 6.20164 5.2109H6.72885V11.5952H7.81728V5.2109H8.34449C8.80473 5.2109 9.17783 4.8378 9.17783 4.37756V2.73385C9.17783 2.27361 8.80473 1.90052 8.34449 1.90052H7.81728V0.166626ZM3.05538 6.53843V0.166626H1.96694V6.53843H1.43973C0.979496 6.53843 0.6064 6.91152 0.6064 7.37176V9.00899C0.6064 9.46923 0.979496 9.84233 1.43973 9.84233H1.96694V11.5904L3.05538 11.5952V9.84233H3.58259C4.04283 9.84233 4.41592 9.46923 4.41592 9.00899V7.37176C4.41592 6.91152 4.04283 6.53843 3.58259 6.53843H3.05538Z" fill="#2D3540"/>
</svg>
