<svg width="21" height="20" viewBox="0 0 21 20" fill="none" xmlns="http://www.w3.org/2000/svg">
<g clip-path="url(#clip0_56_168)">
<path d="M7.97522 9.97644C7.97522 10.1864 8.05823 10.3671 8.21936 10.5282L11.9694 14.1854C12.0963 14.3124 12.2526 14.3807 12.4381 14.3807C12.819 14.3807 13.1217 14.078 13.1217 13.702C13.1217 13.5165 13.0485 13.3407 12.9117 13.204L9.59143 9.98132L12.9117 6.75378C13.0436 6.61707 13.1217 6.44617 13.1217 6.25574C13.1217 5.87976 12.819 5.57703 12.4381 5.57703C12.2526 5.57703 12.0963 5.64539 11.9645 5.77234L8.21936 9.42957C8.05334 9.60046 7.97522 9.77136 7.97522 9.97644Z" fill="#69788C"/>
</g>
<defs>
<clipPath id="clip0_56_168">
<rect width="20" height="20" fill="white" transform="translate(0.734863)"/>
</clipPath>
</defs>
</svg>
