<svg width="25" height="24" viewBox="0 0 25 24" fill="none" xmlns="http://www.w3.org/2000/svg">
<g clip-path="url(#clip0_56_160)">
<path d="M12.5283 15.0625C12.7802 15.0625 12.997 14.9629 13.1904 14.7695L17.579 10.2695C17.7314 10.1172 17.8134 9.92969 17.8134 9.70703C17.8134 9.25 17.4501 8.88672 16.999 8.88672C16.7763 8.88672 16.5654 8.97461 16.4013 9.13867L12.5341 13.123L8.66107 9.13867C8.49701 8.98047 8.29193 8.88672 8.06342 8.88672C7.61224 8.88672 7.24896 9.25 7.24896 9.70703C7.24896 9.92969 7.33099 10.1172 7.48334 10.2754L11.872 14.7695C12.0771 14.9688 12.2822 15.0625 12.5283 15.0625Z" fill="#69788C"/>
</g>
<defs>
<clipPath id="clip0_56_160">
<rect width="24" height="24" fill="white" transform="translate(0.754822)"/>
</clipPath>
</defs>
</svg>
