<svg width="21" height="20" viewBox="0 0 21 20" fill="none" xmlns="http://www.w3.org/2000/svg">
<g clip-path="url(#clip0_56_205)">
<path d="M13.1217 9.98132C13.1217 9.77136 13.0387 9.5907 12.8776 9.42957L9.12756 5.77234C9.00061 5.64539 8.84436 5.57703 8.65881 5.57703C8.27795 5.57703 7.97522 5.87976 7.97522 6.25574C7.97522 6.44128 8.04846 6.61707 8.18518 6.75378L11.5055 9.97644L8.18518 13.204C8.05334 13.3407 7.97522 13.5116 7.97522 13.702C7.97522 14.078 8.27795 14.3807 8.65881 14.3807C8.84436 14.3807 9.00061 14.3124 9.13245 14.1854L12.8776 10.5282C13.0436 10.3573 13.1217 10.1864 13.1217 9.98132Z" fill="#69788C"/>
</g>
<defs>
<clipPath id="clip0_56_205">
<rect width="20" height="20" fill="white" transform="translate(0.734863)"/>
</clipPath>
</defs>
</svg>
