<svg width="21" height="20" viewBox="0 0 21 20" fill="none" xmlns="http://www.w3.org/2000/svg">
<path fill-rule="evenodd" clip-rule="evenodd" d="M15.5792 8.42283V4.16663H14.4908V8.42283H13.9635C13.5033 8.42283 13.1302 8.79592 13.1302 9.25616V10.8999C13.1302 11.3601 13.5033 11.7332 13.9635 11.7332H14.4908V15.5952H15.5792V11.7332H16.1064C16.5666 11.7332 16.9397 11.3601 16.9397 10.8999V9.25616C16.9397 8.79592 16.5666 8.42283 16.1064 8.42283H15.5792ZM10.8173 4.16663H9.72885V5.90052H9.20164C8.7414 5.90052 8.3683 6.27361 8.3683 6.73385V8.37756C8.3683 8.8378 8.7414 9.2109 9.20164 9.2109H9.72885V15.5952H10.8173V9.2109H11.3445C11.8047 9.2109 12.1778 8.8378 12.1778 8.37756V6.73385C12.1778 6.27361 11.8047 5.90052 11.3445 5.90052H10.8173V4.16663ZM6.05538 10.5384V4.16663H4.96694V10.5384H4.43973C3.9795 10.5384 3.6064 10.9115 3.6064 11.3718V13.009C3.6064 13.4692 3.9795 13.8423 4.43973 13.8423H4.96694V15.5904L6.05538 15.5952V13.8423H6.58259C7.04283 13.8423 7.41592 13.4692 7.41592 13.009V11.3718C7.41592 10.9115 7.04283 10.5384 6.58259 10.5384H6.05538Z" fill="#2D3540"/>
</svg>
