<svg width="20" height="20" viewBox="0 0 20 20" fill="none" xmlns="http://www.w3.org/2000/svg">
<path d="M10 3.95837C9.78168 3.95837 9.61473 4.07837 9.40925 4.26837L6.51113 6.98337C6.34846 7.13837 6.25 7.36337 6.25 7.59837C6.25 8.08837 6.60103 8.43337 6.96062 8.43337C7.14041 8.43337 7.32021 8.34837 7.48288 8.19337L10 5.86337L12.5128 8.19337C12.6798 8.34837 12.8553 8.43337 13.0394 8.43337C13.399 8.43337 13.75 8.08837 13.75 7.59837C13.75 7.36337 13.6515 7.13837 13.4846 6.98337L10.5908 4.26837C10.3853 4.07337 10.2183 3.95837 10 3.95837ZM10 16.0417C10.2183 16.0417 10.3853 15.9217 10.5908 15.7267L13.4846 13.0167C13.6515 12.8617 13.75 12.6367 13.75 12.3967C13.75 11.9067 13.399 11.5617 13.0394 11.5617C12.8553 11.5617 12.6798 11.6517 12.5128 11.8017L10 14.1317L7.48288 11.8017C7.32021 11.6517 7.14041 11.5617 6.96062 11.5617C6.60103 11.5617 6.25 11.9067 6.25 12.3967C6.25 12.6367 6.34846 12.8617 6.51113 13.0167L9.40925 15.7267C9.61473 15.9217 9.78168 16.0417 10 16.0417Z" fill="#2D3540"/>
</svg>
