<svg width="24" height="24" viewBox="0 0 24 24" fill="none" xmlns="http://www.w3.org/2000/svg">
<path fill-rule="evenodd" clip-rule="evenodd" d="M10.9358 16.8871C12.2569 16.8871 13.4922 16.4405 14.4873 15.7018L17.1724 18.3902C17.5086 18.7269 18.0542 18.7269 18.3905 18.3902C18.7267 18.0535 18.726 17.5079 18.3889 17.1721L15.7055 14.4994C16.4432 13.5031 16.8893 12.2834 16.8893 10.9436C16.8893 7.66258 14.23 5 10.953 5C7.67604 5 4.99957 7.67975 4.99957 10.9436C4.99957 14.2074 7.67604 16.8871 10.9358 16.8871ZM11.0371 6.75C13.4074 6.75 15.3246 8.60849 15.3246 10.9062C15.3246 13.204 13.4074 15.0625 11.0371 15.0625C8.66675 15.0625 6.74957 13.204 6.74957 10.9062C6.74957 8.60849 8.68418 6.75 11.0371 6.75Z" fill="#69788C"/>
</svg>
