<svg width="7" height="10" viewBox="0 0 7 10" fill="none" xmlns="http://www.w3.org/2000/svg">
<path d="M6.1217 4.98132C6.1217 4.77136 6.0387 4.5907 5.87756 4.42957L2.12756 0.772339C2.00061 0.645386 1.84436 0.577026 1.65881 0.577026C1.27795 0.577026 0.97522 0.879761 0.97522 1.25574C0.97522 1.44128 1.04846 1.61707 1.18518 1.75378L4.50549 4.97644L1.18518 8.20398C1.05334 8.3407 0.97522 8.5116 0.97522 8.70203C0.97522 9.078 1.27795 9.38074 1.65881 9.38074C1.84436 9.38074 2.00061 9.31238 2.13245 9.18543L5.87756 5.5282C6.04358 5.3573 6.1217 5.1864 6.1217 4.98132Z" fill="#69788C"/>
</svg>
