<svg width="7" height="10" viewBox="0 0 7 10" fill="none" xmlns="http://www.w3.org/2000/svg">
<path d="M0.97522 4.97644C0.97522 5.1864 1.05823 5.36707 1.21936 5.5282L4.96936 9.18543C5.09631 9.31238 5.25256 9.38074 5.43811 9.38074C5.81897 9.38074 6.1217 9.078 6.1217 8.70203C6.1217 8.51648 6.04846 8.3407 5.91174 8.20398L2.59143 4.98132L5.91174 1.75378C6.04358 1.61707 6.1217 1.44617 6.1217 1.25574C6.1217 0.879761 5.81897 0.577026 5.43811 0.577026C5.25256 0.577026 5.09631 0.645386 4.96448 0.772339L1.21936 4.42957C1.05334 4.60046 0.97522 4.77136 0.97522 4.97644Z" fill="#69788C"/>
</svg>
